<?xml version="1.0" encoding="UTF-8"?>
<svg version="1.1" xmlns="http://www.w3.org/2000/svg" width="1350" height="1080">
<path d="M0 0 C4.95 0 9.9 0 15 0 C20.44153223 10.28083955 25.87268283 20.55778088 31 31 C36.44399843 20.71940475 41.85150395 10.43247883 47 0 C51.95 0 56.9 0 62 0 C62 17.82 62 35.64 62 54 C58.04 54 54.08 54 50 54 C49.67 43.77 49.34 33.54 49 23 C44.71 31.58 40.42 40.16 36 49 C33.03 49 30.06 49 27 49 C25.41561407 46.00055183 23.83246546 43.00046119 22.25 40 C21.8065625 39.16082031 21.363125 38.32164062 20.90625 37.45703125 C20.24882813 36.20986328 20.24882813 36.20986328 19.578125 34.9375 C19.18012695 34.18339844 18.78212891 33.42929687 18.37207031 32.65234375 C16.54487882 29.12020703 14.77846105 25.5569221 13 22 C12.67 32.56 12.34 43.12 12 54 C8.04 54 4.08 54 0 54 C0 36.18 0 18.36 0 0 Z " fill="#000000" transform="translate(639,618)"/>
<path d="M0 0 C4.95 0 9.9 0 15 0 C15.83402344 1.99417969 16.66804687 3.98835937 17.52734375 6.04296875 C18.36585756 8.04637604 19.20469331 10.04964818 20.04360962 12.05288696 C20.63797682 13.47223771 21.23219555 14.89165065 21.82626343 16.31112671 C25.97110866 26.21234663 30.1507805 36.09677594 34.45874023 45.9284668 C37 51.7841512 37 51.7841512 37 54 C32.38 54 27.76 54 23 54 C21.68 51.03 20.36 48.06 19 45 C11.08 45 3.16 45 -5 45 C-6.32 47.97 -7.64 50.94 -9 54 C-13.62 54 -18.24 54 -23 54 C-15.53782886 35.90886726 -7.81786704 17.93943158 0 0 Z M7 15 C3.73450272 21.18111986 1.31012271 27.39964941 -1 34 C4.28 34 9.56 34 15 34 C14.04637378 31.39402144 13.08732872 28.79026349 12.125 26.1875 C11.85558594 25.44951172 11.58617187 24.71152344 11.30859375 23.95117188 C11.04433594 23.23896484 10.78007813 22.52675781 10.5078125 21.79296875 C10.26691895 21.1383667 10.02602539 20.48376465 9.77783203 19.80932617 C8.94473832 17.72104063 8.94473832 17.72104063 7 15 Z " fill="#000000" transform="translate(599,618)"/>
<path d="M0 0 C1.94433394 0.9397157 3.90730326 1.81755272 5.88183594 2.69140625 C9.05029709 4.24208841 11.56294141 5.52823113 14.07714844 8.00390625 C15.04878351 11.85910345 14.83469418 15.12499146 14.07714844 19.00390625 C10.59139945 16.99170657 7.44118057 14.78259576 4.26464844 12.31640625 C-10.83989451 1.26827902 -29.29758219 -6.31975793 -48.25878906 -3.5 C-55.09456514 -2.18770893 -60.95358405 -0.39606343 -67.03222656 3.015625 C-68.92285156 4.00390625 -68.92285156 4.00390625 -70.92285156 4.00390625 C-68.07764523 -2.34309249 -63.12204897 -5.71284108 -56.79785156 -8.30859375 C-37.40498846 -15.6506202 -17.63549855 -8.62285991 0 0 Z " fill="#000000" transform="translate(541,618)"/>
<path d="M0 0 C4.62 0 9.24 0 14 0 C14 14.19 14 28.38 14 43 C21.59 43 29.18 43 37 43 C37 46.63 37 50.26 37 54 C24.79 54 12.58 54 0 54 C0 36.18 0 18.36 0 0 Z " fill="#000000" transform="translate(732,618)"/>
<path d="M0 0 C4.62 0 9.24 0 14 0 C14 17.82 14 35.64 14 54 C9.38 54 4.76 54 0 54 C0 36.18 0 18.36 0 0 Z " fill="#000000" transform="translate(709,618)"/>
<path d="M0 0 C2.97 0 5.94 0 9 0 C9 15.84 9 31.68 9 48 C16.59 48 24.18 48 32 48 C32 49.98 32 51.96 32 54 C21.44 54 10.88 54 0 54 C0 36.18 0 18.36 0 0 Z " fill="#000000" transform="translate(978,619)"/>
<path d="M0 0 C9 0 9 0 11.609375 2.2109375 C12.31578125 3.25507812 13.0221875 4.29921875 13.75 5.375 C14.14993164 5.94500732 14.54986328 6.51501465 14.96191406 7.10229492 C15.84440961 8.36230989 16.71463088 9.63098564 17.57421875 10.90673828 C19.66309704 13.97352638 21.85545703 16.96241082 24.04003906 19.96142578 C26.13724757 22.84493777 28.21194799 25.7442562 30.28417969 28.64575195 C32.81937366 32.12424875 35.41740955 35.55654607 38 39 C38.33 26.13 38.66 13.26 39 0 C41.64 0 44.28 0 47 0 C47 17.82 47 35.64 47 54 C38 54 38 54 35.42578125 51.82421875 C34.72839844 50.78910156 34.03101563 49.75398437 33.3125 48.6875 C32.48346926 47.50232683 31.6540151 46.31744976 30.82421875 45.1328125 C30.38126465 44.47829102 29.93831055 43.82376953 29.48193359 43.14941406 C27.24021864 39.8980041 24.86550662 36.7486632 22.50463867 33.58325195 C20.69518272 31.15662087 18.89401685 28.72436985 17.1015625 26.28515625 C16.59963379 25.60332275 16.09770508 24.92148926 15.58056641 24.21899414 C13.65936002 21.52176757 11.83689245 18.75533868 10 16 C9.67 28.54 9.34 41.08 9 54 C6.03 54 3.06 54 0 54 C0 36.18 0 18.36 0 0 Z " fill="#000000" transform="translate(1077,619)"/>
<path d="M0 0 C6.73225437 7.04538248 9.0795566 14.36144366 8.96484375 23.93359375 C8.25649155 31.28648909 4.28524567 38.04492847 -1.3125 42.8125 C-9.59933952 47.87376591 -17.18852836 50.11177149 -26.83984375 48.3515625 C-34.51845505 46.34021594 -40.53757857 42.7082353 -45.1875 36.1875 C-48.7689841 29.83795362 -50.03861545 22.23661872 -48.75 15.0625 C-46.33243988 6.60103958 -41.08474725 0.25764757 -33.578125 -4.22265625 C-22.37110426 -9.37118074 -9.83676256 -6.49597528 0 0 Z M-33.625 5 C-38.17406071 9.76064493 -40.50609658 14.16354582 -40.8125 20.8125 C-40.52984882 26.75729256 -38.74323112 31.22048815 -34.6640625 35.5703125 C-29.38602419 40.34129036 -24.80291273 42.33110869 -17.6484375 42.1171875 C-11.79725671 41.35399001 -7.68770893 38.67322206 -3.9375 34.1875 C-0.35912366 28.89346378 1.13753863 23.57594806 0.375 17.19921875 C-1.14561285 10.93619457 -3.98335335 6.48777355 -9.3125 2.8125 C-18.23563407 -1.33779492 -25.43545807 -0.40818807 -33.625 5 Z " fill="#000000" transform="translate(1060.3125,625.1875)"/>
<path d="M0 0 C4.62 0 9.24 0 14 0 C15.28197266 2.25650391 15.28197266 2.25650391 16.58984375 4.55859375 C17.70564448 6.51827739 18.8215345 8.47791019 19.9375 10.4375 C20.50146484 11.43072266 21.06542969 12.42394531 21.64648438 13.44726562 C22.18466797 14.39150391 22.72285156 15.33574219 23.27734375 16.30859375 C23.77484131 17.18314209 24.27233887 18.05769043 24.78491211 18.95874023 C25.84060192 20.92257517 25.84060192 20.92257517 27 22 C30.96 14.74 34.92 7.48 39 0 C43.62 0 48.24 0 53 0 C52.2392796 1.54105822 51.47774808 3.08171919 50.71313477 4.62084961 C50.01629879 6.02497161 49.32289513 7.43080115 48.63256836 8.83813477 C46.56238288 13.01849845 44.39241463 17.10314696 42.0546875 21.140625 C35.68673942 32.31090353 32.27017914 41.04992284 33 54 C28.71 54 24.42 54 20 54 C20.04833984 52.36417969 20.04833984 52.36417969 20.09765625 50.6953125 C20.13235744 37.78357809 16.38592751 29.0254006 10 18 C9.14268955 16.46268648 8.28850412 14.92362594 7.4375 13.3828125 C5.89391046 10.59814289 4.33426031 7.82423177 2.75 5.0625 C1.79721506 3.39512635 0.85882874 1.71765748 0 0 Z " fill="#000000" transform="translate(766,618)"/>
<path d="M0 0 C1.7578125 1.0703125 1.7578125 1.0703125 2.7578125 3.0703125 C1.82334715 5.10175891 0.82556474 7.10564837 -0.2421875 9.0703125 C-0.77585937 8.86535156 -1.30953125 8.66039062 -1.859375 8.44921875 C-8.5488026 6.03037728 -15.19892234 4.32767196 -22.3046875 5.6328125 C-24.51305931 6.99753891 -24.51305931 6.99753891 -25.3046875 9.9453125 C-25.54263275 13.06695445 -25.54263275 13.06695445 -23.76171875 15.08203125 C-19.82909854 18.18544782 -15.35920791 19.24852503 -10.6171875 20.69335938 C-4.76678864 22.59008763 -0.22665085 24.96419595 3.1953125 30.3203125 C4.23132878 35.38528099 3.54354539 40.10598027 1.6328125 44.8828125 C-2.58016466 49.79795252 -7.8675407 51.7210393 -14.19921875 52.2265625 C-23.57763095 52.62075145 -30.98614982 49.90669063 -38.2421875 44.0703125 C-37.62941138 41.10856127 -36.98846228 39.68972467 -35.2421875 37.0703125 C-32.90892148 37.94528726 -30.66314011 38.82078856 -28.515625 40.09375 C-22.9155371 43.34318372 -17.65897357 44.23154056 -11.2421875 43.0703125 C-7.87913259 41.12892077 -7.87913259 41.12892077 -6.2421875 38.0703125 C-5.99065491 35.41126781 -5.99065491 35.41126781 -7.2421875 33.0703125 C-11.28743918 29.22013641 -16.75961727 28.06272328 -21.95507812 26.40820312 C-27.15452165 24.67505528 -31.41613698 22.87025663 -34.53125 18.09375 C-36.27438388 13.13252279 -35.88687217 8.49399114 -33.7421875 3.7578125 C-24.91758685 -5.72863319 -11.26004949 -5.01685373 0 0 Z " fill="#000000" transform="translate(892.2421875,621.9296875)"/>
</svg>

