<?xml version="1.0" encoding="UTF-8"?>
<svg version="1.1" xmlns="http://www.w3.org/2000/svg" width="1350" height="1080">
<path d="M0 0 C0.33 0.99 0.66 1.98 1 3 C2.17458336 4.40950003 3.35356012 5.81566162 4.55859375 7.19921875 C6.14897237 9.18611453 7.42258064 11.26703994 8.75 13.4375 C14.41279117 21.99652787 22.23166145 26.37437015 32 29 C32.639375 29.17587646 33.27875 29.35175293 33.9375 29.53295898 C41.77901335 31.41011371 49.66487805 31.40703486 57.68359375 31.42553711 C60.1000078 31.43737754 62.51381376 31.48663505 64.9296875 31.53710938 C74.52572641 31.634304 82.54854799 30.44017553 91.56542969 27.12719727 C97.66482447 25.12542688 103.14968259 25.12297926 109.25 27 C113.12253752 29.81639092 116.01364436 33.2803085 119 37 C119.38478516 36.1646875 119.38478516 36.1646875 119.77734375 35.3125 C124.22472984 26.44767654 129.96299587 20.73769026 139.4375 17.5 C144.5 16 144.5 16 147 16 C147 16.66 147 17.32 147 18 C145.80987466 19.06609243 144.57121392 20.07832997 143.3125 21.0625 C139.49966524 24.28252652 137.29663788 27.43318727 135.10546875 31.88671875 C133.93640674 34.12156875 132.55847637 36.02176208 131 38 C131.66 37.67 132.32 37.34 133 37 C131.93807573 79.29998332 131.93807573 79.29998332 128 88 C125.42853943 85.42853943 125.19882003 83.3949583 124.375 79.875 C124.11460937 78.77929688 123.85421875 77.68359375 123.5859375 76.5546875 C123.39257812 75.71164062 123.19921875 74.86859375 123 74 C122.34 77.63 121.68 81.26 121 85 C118.27213091 83.63606545 118.11161717 82.16089808 116.9375 79.375 C114.17637969 73.63022132 110.3902656 70.30078062 105 67 C104.01 66.67 103.02 66.34 102 66 C102.59167969 66.4125 103.18335938 66.825 103.79296875 67.25 C111.24145573 72.69359244 115.50005782 78.05747555 118 87 C118.265625 90.32421875 118.265625 90.32421875 118.25 93.6875 C118.25773437 95.36392578 118.25773437 95.36392578 118.265625 97.07421875 C118 100 118 100 116 103 C115.608125 101.865625 115.21625 100.73125 114.8125 99.5625 C110.44402174 88.25233025 105.05225024 81.9341578 93.921875 76.49609375 C81.04714297 71.18447401 67.77112179 69.6308658 54 69 C54.74983154 69.29132813 55.49966309 69.58265625 56.2722168 69.8828125 C95.57487187 85.24989995 95.57487187 85.24989995 102.26953125 98.515625 C106.82721987 109.27370273 106.56856814 118.8083817 104 130 C104.57234375 129.66226563 105.1446875 129.32453125 105.734375 128.9765625 C109.35670217 127.41521458 112.16302825 128.36050471 116 129 C116.20625 128.21625 116.4125 127.4325 116.625 126.625 C118.48177118 121.72987597 121.06379319 117.33154707 124 113 C124.33 113 124.66 113 125 113 C125.20625 114.11375 125.4125 115.2275 125.625 116.375 C131.50855039 139.22879097 158.03148647 157.98784774 175.640625 171.5859375 C176.46127441 172.22072021 177.28192383 172.85550293 178.12744141 173.50952148 C179.77211762 174.77912149 181.42015605 176.04437973 183.07177734 177.30493164 C183.82410645 177.88364014 184.57643555 178.46234863 185.3515625 179.05859375 C186.03041504 179.57736084 186.70926758 180.09612793 187.40869141 180.63061523 C189 182 189 182 190 184 C184.11080997 182.36194715 179.0569714 179.45230788 173.75 176.5 C172.78143066 175.96536133 171.81286133 175.43072266 170.81494141 174.87988281 C168.82962074 173.78325429 166.84540572 172.68462173 164.86230469 171.58398438 C162.23992086 170.13277094 159.61031501 168.69607061 156.9765625 167.265625 C142.26071698 159.24535872 127.3640592 150.55609339 116 138 C115.1875 134.1875 115.1875 134.1875 115 131 C114.34 131.33 113.68 131.66 113 132 C113.38126631 137.33772833 115.36431618 140.27004659 119 144 C121.10460004 145.71032742 123.15276382 147.27974946 125.375 148.8125 C125.9844043 149.23917969 126.59380859 149.66585937 127.22167969 150.10546875 C138.37050145 157.80766958 150.23796692 164.31654342 162.1015625 170.8359375 C165.10881408 172.49287698 168.07169549 174.20597945 171 176 C164.1062174 178.29792753 153.42457365 171.27851411 146.99194336 168.12182617 C143.64447419 166.44665561 140.32096143 164.72696643 137 163 C136.39220703 162.68836914 135.78441406 162.37673828 135.15820312 162.05566406 C127.01926258 157.88014896 119.07385678 153.38390283 111.1875 148.75 C110.30868164 148.24243164 109.42986328 147.73486328 108.52441406 147.21191406 C107.70553711 146.72432617 106.88666016 146.23673828 106.04296875 145.734375 C105.31102295 145.30350586 104.57907715 144.87263672 103.82495117 144.42871094 C101.76224634 142.8138683 100.98165944 141.40267643 100 139 C99.51789063 139.75925781 99.03578125 140.51851562 98.5390625 141.30078125 C97.59160156 142.79158203 97.59160156 142.79158203 96.625 144.3125 C95.99851562 145.29863281 95.37203125 146.28476562 94.7265625 147.30078125 C93.50348387 149.21287929 92.2590644 151.1114034 91 153 C90.34 153 89.68 153 89 153 C89.10828125 151.81857422 89.10828125 151.81857422 89.21875 150.61328125 C90.72894573 132.88945639 91.07151749 116.88941487 79.2109375 102.54296875 C76.4052776 99.33448433 73.38847911 96.62310057 69.9375 94.125 C69.32463135 93.67576172 68.7117627 93.22652344 68.08032227 92.76367188 C61.16167811 87.85948097 53.780295 83.72383221 46.4375 79.5 C33.23831488 71.9033242 20.39906469 64.33185555 11 52 C10.67 52.99 10.34 53.98 10 55 C8.35086118 53.54540569 6.70578218 52.08620743 5.0625 50.625 C4.14597656 49.81289063 3.22945312 49.00078125 2.28515625 48.1640625 C0 46 0 46 -1 44 C-5.36539473 43.72135778 -8.50389495 44.04383482 -12.625 45.5625 C-16.09797354 46.80496072 -18.47715387 47.6012937 -22 46 C-23.12890625 43.94140625 -23.12890625 43.94140625 -24 42 C-17.1834265 40.2120463 -11.03482474 39.76331431 -4 40 C-4.32613281 39.3709375 -4.65226562 38.741875 -4.98828125 38.09375 C-7.68379232 32.8140469 -10.03249981 27.59184265 -12 22 C-12.62529897 27.0247239 -13.13012092 31.92528427 -13 37 C-16.79252296 32.86270222 -17.95214436 28.0149054 -18.0390625 22.5390625 C-17.58219139 15.46843825 -15.76779821 9.69496142 -10.625 4.6875 C-3.33333333 0 -3.33333333 0 0 0 Z M-2 4 C-4.5003835 12.67780156 -5.12331739 21.75336521 -1 30 C-1 21.42 -1 12.84 -1 4 C-1.33 4 -1.66 4 -2 4 Z M1 11 C0.46975107 18.82117173 1.87015305 25.78396396 5 33 C7.0109654 35.34196974 7.0109654 35.34196974 9 37 C8.56880859 35.71416016 8.56880859 35.71416016 8.12890625 34.40234375 C2.63737001 17.85172761 2.63737001 17.85172761 2 11 C1.67 11 1.34 11 1 11 Z M11 26 C12 28 12 28 12 28 Z M-1 30 C0 33 0 33 0 33 Z M16 32 C16.33 32.66 16.66 33.32 17 34 C17.66 33.67 18.32 33.34 19 33 C18.01 32.67 17.02 32.34 16 32 Z M67 34 C69.78823655 35.0326802 70.8677274 35.04509293 73.75 34.0625 C74.4925 33.711875 75.235 33.36125 76 33 C72.23375329 31.74458443 70.62811066 32.62938042 67 34 Z M0 33 C1 36 1 36 1 36 Z M19 34 C23.82252336 39.21394473 31.36742512 39.66571397 38.18359375 40.29296875 C47.07885088 40.52617774 59.40895407 40.06069729 67 35 C65.1746875 35.2165625 65.1746875 35.2165625 63.3125 35.4375 C62.62800781 35.51871094 61.94351563 35.59992188 61.23828125 35.68359375 C58.9784118 35.97413373 58.9784118 35.97413373 56.69458008 36.50708008 C51.95317707 37.37442561 47.18280443 37.22646118 42.375 37.25 C41.34503906 37.270625 40.31507813 37.29125 39.25390625 37.3125 C32.05498454 37.34872099 25.83575103 36.2452826 19 34 Z M1 36 C2 38 2 38 2 38 Z M9 37 C10.3089572 40.12197478 10.3089572 40.12197478 13 42 C11.6910428 38.87802522 11.6910428 38.87802522 9 37 Z M2 38 C3 40 3 40 3 40 Z M86 41 C92.27 40.67 98.54 40.34 105 40 C105 39.67 105 39.34 105 39 C102.39555652 38.94605295 99.79223002 38.90635531 97.1875 38.875 C96.08051758 38.84986328 96.08051758 38.84986328 94.95117188 38.82421875 C91.08753574 38.78925372 89.29096332 38.80602445 86 41 Z M77 43 C80.76624671 44.25541557 82.37188934 43.37061958 86 42 C82.38055101 40.65946334 80.42632833 41.38201162 77 43 Z M4 42 C5 44 5 44 5 44 Z M13 42 C13.33 42.66 13.66 43.32 14 44 C14.66 43.67 15.32 43.34 16 43 C15.01 42.67 14.02 42.34 13 42 Z M126 42 C127 44 127 44 127 44 Z M5 44 C5.33 44.99 5.66 45.98 6 47 C6 46.01 6 45.02 6 44 C5.67 44 5.34 44 5 44 Z M125 44 C122.79463821 48.0271824 121.54339792 51.43545749 121 56 C123.27426046 55.15570324 123.27426046 55.15570324 123.8515625 52.49609375 C124.10679687 51.48675781 124.36203125 50.47742188 124.625 49.4375 C124.88539063 48.42558594 125.14578125 47.41367187 125.4140625 46.37109375 C125.60742188 45.58863281 125.80078125 44.80617188 126 44 C125.67 44 125.34 44 125 44 Z M71 45 C70.34 45.66 69.68 46.32 69 47 C70.65 46.67 72.3 46.34 74 46 C73.01 45.67 72.02 45.34 71 45 Z M115 45 C116.32 46.65 117.64 48.3 119 50 C118.73323796 48.01508358 118.73323796 48.01508358 118 46 C117.01 45.67 116.02 45.34 115 45 Z M19 46 C21.79223884 49.35908431 25.5494468 51.06907562 29.375 53 C30.01566406 53.34289062 30.65632813 53.68578125 31.31640625 54.0390625 C42.15541249 59.53194381 53.8559096 60.4696492 65.8125 61.0625 C76.28423906 61.66438334 86.62492326 62.44208113 97 64 C89.26609078 58.84406052 78.35932984 59.43941207 69.375 58.875 C67.43947266 58.74544922 67.43947266 58.74544922 65.46484375 58.61328125 C62.31023419 58.40297395 59.15535909 58.19868732 56 58 C60.83101118 57.12782 65.66486883 56.27436875 70.50195312 55.43652344 C72.13952789 55.15036397 73.77629134 54.85951327 75.41210938 54.56347656 C86.40947776 52.57746532 96.81205216 51.58334539 108 52 C101.48172016 47.65448011 91.63491261 49.72171136 84.24609375 51.09375 C81.9752019 51.55586349 79.70568246 52.02476637 77.4375 52.5 C68.71382111 54.18956396 60.27389301 55.4766411 51.375 55.4375 C50.56603271 55.43492187 49.75706543 55.43234375 48.92358398 55.4296875 C43.13310076 55.28454745 37.64002604 54.28141985 32 53 C33 52 33 52 36.90234375 51.97265625 C38.58075849 52.00091296 40.25914362 52.03096677 41.9375 52.0625 C48.91737731 52.14077168 55.20771955 51.78158176 62 50 C62 49.67 62 49.34 62 49 C61.40316406 49.0721875 60.80632812 49.144375 60.19140625 49.21875 C47.47175928 50.57954433 35.60907733 51.26084389 23.44140625 46.875 C21.11845626 45.88753808 21.11845626 45.88753808 19 46 Z M7 47 C7.33 47.99 7.66 48.98 8 50 C8 49.01 8 48.02 8 47 C7.67 47 7.34 47 7 47 Z M62 48 C66 49 66 49 66 49 Z M111 53 C111.33 53.66 111.66 54.32 112 55 C112.66 54.67 113.32 54.34 114 54 C113.01 53.67 112.02 53.34 111 53 Z M115 56 C115.99 56.99 116.98 57.98 118 59 C117.67 58.01 117.34 57.02 117 56 C116.34 56 115.68 56 115 56 Z M119 60 C119.66 62.31 120.32 64.62 121 67 C121.77242269 65.16299211 121.77242269 65.16299211 122 63 C120.64555699 61.22809091 120.64555699 61.22809091 119 60 Z " fill="#000000" transform="translate(226,425)"/>
<path d="M0 0 C10.42022097 4.61030093 16.00710721 14.85004488 20 25 C21.24585377 29.30063401 22.23084328 33.59016812 23 38 C22.30987221 29.52128715 20.40064726 22.85700951 16.30053711 15.49560547 C15.48589739 14.02250599 14.7367299 12.5135683 14 11 C14.33 10.34 14.66 9.68 15 9 C15.99 9.66 16.98 10.32 18 11 C17.34 10.01 16.68 9.02 16 8 C18.86220521 8.61465669 21.16469023 9.49549945 23.71484375 10.92578125 C24.40126953 11.31056641 25.08769531 11.69535156 25.79492188 12.09179688 C26.50197266 12.49462891 27.20902344 12.89746094 27.9375 13.3125 C28.64068359 13.70373047 29.34386719 14.09496094 30.06835938 14.49804688 C36.9625389 18.39419519 41.6342531 22.3554293 45.9375 29 C46.370625 29.66136963 46.80375 30.32273926 47.25 31.00415039 C55.31037291 43.51427021 61.01585025 55.25747968 58.375 70.375 C53.74470431 88.45818183 38.08422807 100.19362695 24 111 C12.01435071 120.32723531 -0.68971201 131.13827204 -3.32421875 146.9453125 C-3.91329717 154.24988496 -1.04406703 160.06388732 3 166 C7.70440075 171.51581871 12.96212876 176.97475251 19 181 C19 181.66 19 182.32 19 183 C1.73057474 178.98829723 -12.09331481 167.44409826 -22 153 C-27.67729933 142.3610273 -31.12164971 132.56175916 -28.421875 120.39453125 C-23.9445697 108.89599717 -13.53430886 103.06363223 -3 98 C-4.37933339 91.56311084 -6.41498668 85.56645568 -9.25 79.625 C-9.79140625 78.48289062 -10.3328125 77.34078125 -10.890625 76.1640625 C-14.36794037 70.94808945 -18.29425575 68.20143138 -24.41015625 66.77734375 C-25.9577692 66.48037998 -27.5087648 66.20055942 -29.0625 65.9375 C-34.93650634 64.91868894 -39.21576138 63.84368397 -44 60 C-47.03123064 54.51491599 -47.1251661 48.26627774 -47.0625 42.125 C-47.05347656 40.97257813 -47.04445312 39.82015625 -47.03515625 38.6328125 C-47.02355469 37.76398437 -47.01195312 36.89515625 -47 36 C-43.92123817 39.07876183 -43.94472061 43.23533129 -43.3203125 47.4140625 C-42.55527741 51.83040144 -41.59628274 54.26574758 -38 57 C-26.34409872 60.88530043 -10.39464017 58.47884208 0.4375 53.3828125 C3.70397047 51.68395621 6.87676438 49.9494021 10 48 C11.42505859 47.11634766 11.42505859 47.11634766 12.87890625 46.21484375 C15.3172092 44.10662322 15.3172092 44.10662322 15.4296875 40.703125 C13.85377184 27.12159731 7.47232098 15.43290651 0.83862305 3.71728516 C0 2 0 2 0 0 Z M21 14 C22.36370299 16.99220268 23.94908083 19.29026529 26.125 21.75 C26.66382813 22.36359375 27.20265625 22.9771875 27.7578125 23.609375 C28.16773438 24.06828125 28.57765625 24.5271875 29 25 C29 21.24026115 28.03457593 20.54322371 25.5625 17.8125 C24.92441406 17.09707031 24.28632813 16.38164062 23.62890625 15.64453125 C23.09136719 15.10183594 22.55382812 14.55914062 22 14 C21.67 14 21.34 14 21 14 Z M30 25 C31.26974972 29.41522109 31.26974972 29.41522109 34 33 C33.50168276 29.31245243 32.89932357 27.39509338 30 25 Z M34 33 C35 36 35 36 35 36 Z M35 36 C35.33 42.6 35.66 49.2 36 56 C36.33 56 36.66 56 37 56 C37.05407567 53.41638482 37.093707 50.83390745 37.125 48.25 C37.14175781 47.52039063 37.15851563 46.79078125 37.17578125 46.0390625 C37.21372922 41.86478602 36.91514727 39.83029454 35 36 Z M16 47 C15.46246094 47.721875 14.92492187 48.44375 14.37109375 49.1875 C11.5942062 52.48133696 8.60942294 54.6079761 5.0625 57 C-1.59140179 61.33603952 -1.59140179 61.33603952 -7 67 C-7.2787385 70.12590974 -6.67507647 72.95242773 -6 76 C-5.81163574 76.8883252 -5.62327148 77.77665039 -5.42919922 78.69189453 C-4.80407211 81.49291647 -4.12944383 84.27728074 -3.4375 87.0625 C-3.20353516 88.02349609 -2.96957031 88.98449219 -2.72851562 89.97460938 C-2.15732057 92.31767482 -1.58107577 94.65936918 -1 97 C4.13756468 96.35983027 8.58790181 94.80299667 13.375 92.9375 C14.11105469 92.65583984 14.84710938 92.37417969 15.60546875 92.08398438 C17.4055736 91.39433382 19.2030621 90.69786068 21 90 C17.48130673 88.82710224 16.54503988 89.26803348 13.125 90.4375 C9.58942614 91.643055 6.74188461 92.16764716 3 92 C3.78503906 91.26136719 4.57007813 90.52273438 5.37890625 89.76171875 C12.03399466 83.38105605 17.49506799 77.12989187 22 69 C22.36996094 68.35675781 22.73992187 67.71351563 23.12109375 67.05078125 C24.09385452 65.33518132 24.09385452 65.33518132 25 63 C24.67 62.34 24.34 61.68 24 61 C23.360625 61.886875 22.72125 62.77375 22.0625 63.6875 C18.77922159 67.68247171 14.57645297 69.74667022 10 72 C10.33773437 71.38253906 10.67546875 70.76507812 11.0234375 70.12890625 C15.02239849 62.53550345 17.44496566 55.67683039 17 47 C16.67 47 16.34 47 16 47 Z M25 59 C26 61 26 61 26 61 Z " fill="#000000" transform="translate(246,492)"/>
<path d="M0 0 C11.58452586 5.40611207 19.43787386 15.28125613 24 27 C27.3792717 38.66291994 25.73424248 53.0576471 21 64 C20.61070312 64.91652344 20.22140625 65.83304688 19.8203125 66.77734375 C15.76140079 75.14734808 9.45247398 81.44621362 3 88 C2.26523437 88.76183594 1.53046875 89.52367187 0.7734375 90.30859375 C-1.74759387 92.88862798 -3.9816608 94.98777387 -7 97 C-6.34773438 97.09796875 -5.69546875 97.1959375 -5.0234375 97.296875 C1.59282795 98.42886142 6.56226528 99.80572692 10.8125 105.375 C12.11916951 108.26342733 12.63494364 110.8605153 13 114 C12.34773438 114.02578125 11.69546875 114.0515625 11.0234375 114.078125 C5.26945122 114.45154004 1.54168229 115.13957005 -3 119 C-5.35620437 122.53430656 -5.48991613 123.83571287 -5 128 C-2.45231918 132.89938619 0.37534108 135.267247 5 138 C2.54625693 140.56527685 1.16846003 141.93782842 -2.49609375 142.1328125 C-3.46675781 142.13023437 -4.43742187 142.12765625 -5.4375 142.125 C-6.40558594 142.12757813 -7.37367188 142.13015625 -8.37109375 142.1328125 C-11 142 -11 142 -14 141 C-14 142.98 -14 144.96 -14 147 C-23.88784602 142.39163737 -31.01460388 134.92104065 -35.375 125 C-38.1343302 117.39445121 -37.5620138 111.89429353 -34.3125 104.50390625 C-28.73845839 93.87009472 -19.17641652 86.2281904 -9.875 78.9375 C2.31291987 69.27987728 13.3114811 57.0903733 15.37890625 41.0625 C15.94489602 27.04055988 9.23651869 15.62658612 1.5625 4.375 C0 2 0 2 0 0 Z " fill="#000000" transform="translate(290,516)"/>
<path d="M0 0 C2.51406437 2.51406437 5.01787299 5.01924783 7.4375 7.625 C15.250958 14.86674156 25.61604687 14.64901265 35.71875 14.5 C43.29132509 14.11495381 50.53168234 12.25782821 57.875 10.5 C88.51089455 3.22325724 88.51089455 3.22325724 102.0625 9 C106.95856015 12.13986466 110.1076849 16.41721968 111.515625 22.0703125 C111.8125 24 111.8125 24 112 27 C111.54109375 26.59007812 111.0821875 26.18015625 110.609375 25.7578125 C109.99578125 25.21898437 109.3821875 24.68015625 108.75 24.125 C108.14671875 23.59132813 107.5434375 23.05765625 106.921875 22.5078125 C101.26023162 18.06595407 95.97267051 18.40434473 89 19 C84.55390212 19.69893828 80.14348626 20.56772113 75.73852539 21.48876953 C53.25280932 26.16437417 28.98948732 26.54880668 9.1015625 13.78125 C5.02324665 10.71733758 2.25493357 6.51984473 0 2 C0 1.34 0 0.68 0 0 Z " fill="#000000" transform="translate(232,432)"/>
<path d="M0 0 C3.125 2.0625 3.125 2.0625 5 4 C5 4.66 5 5.32 5 6 C3.86304688 6.01417969 2.72609375 6.02835937 1.5546875 6.04296875 C-8.85911217 6.30722657 -17.34782202 7.90368649 -27 12 C-63.81770082 27.11740681 -63.81770082 27.11740681 -76.15625 23.33984375 C-82.26021127 20.24770548 -86.92701119 13.97525601 -90 8 C-90 7.34 -90 6.68 -90 6 C-87.22219947 7.09428506 -84.53726684 8.22763023 -81.85546875 9.546875 C-77.68667353 11.3274174 -73.86530548 11.49928877 -69.375 11.4375 C-68.58303223 11.42847656 -67.79106445 11.41945313 -66.97509766 11.41015625 C-55.72153838 11.08218367 -46.4362894 7.0374305 -36.64208984 1.81835938 C-25.25270781 -4.20875179 -11.95711157 -5.35696681 0 0 Z " fill="#000000" transform="translate(322,421)"/>
<path d="M0 0 C10.53332215 0.04660762 19.01558735 4.29542034 27 11 C25.92130607 10.03644756 24.83681257 9.07938583 23.75 8.125 C23.14671875 7.59132813 22.5434375 7.05765625 21.921875 6.5078125 C20.02581254 5.0202513 18.18709995 3.99677564 16 3 C16 2.34 16 1.68 16 1 C29.55915571 2.66746899 29.55915571 2.66746899 34 7 C38.07646311 13.58248551 40.14303196 19.54153445 40.09765625 27.30078125 C40.09443359 28.27724609 40.09121094 29.25371094 40.08789062 30.25976562 C40.07532227 31.77086914 40.07532227 31.77086914 40.0625 33.3125 C40.05798828 34.33923828 40.05347656 35.36597656 40.04882812 36.42382812 C40.03708184 38.94927882 40.02065565 41.47460905 40 44 C38 43 38 43 37.3671875 41.15234375 C37.20476562 40.42144531 37.04234375 39.69054687 36.875 38.9375 C36.62363281 37.83728516 36.62363281 37.83728516 36.3671875 36.71484375 C36.18542969 35.86599609 36.18542969 35.86599609 36 35 C36.23074219 36.05058594 36.46148437 37.10117187 36.69921875 38.18359375 C38.3678503 45.46694498 39.96335036 52.02715508 44.046875 58.3984375 C45 60 45 60 45 62 C36.01302608 58.9187518 32.10210052 52.31031729 28.00976562 44.20849609 C25.789914 39.35337573 24.19399267 34.26396601 22.50439453 29.20654297 C17.96863445 15.75450837 12.57233748 7.67103621 0 1 C0 0.67 0 0.34 0 0 Z M28 13 C28.33 13.99 28.66 14.98 29 16 C29 15.01 29 14.02 29 13 C28.67 13 28.34 13 28 13 Z M30 16 C31 18 31 18 31 18 Z M31 18 C32 20 32 20 32 20 Z M32 20 C33 23 33 23 33 23 Z M33 23 C34 26 34 26 34 26 Z M34 26 C35 29 35 29 35 29 Z " fill="#000000" transform="translate(417,391)"/>
<path d="M0 0 C0.62261719 0.51820313 1.24523437 1.03640625 1.88671875 1.5703125 C3.96794712 2.47129364 3.96794712 2.47129364 6.07421875 3.1328125 C8.1796875 3.82421875 8.1796875 3.82421875 9.88671875 4.5703125 C10.38171875 5.5603125 10.38171875 5.5603125 10.88671875 6.5703125 C9.63117188 6.52390625 8.375625 6.4775 7.08203125 6.4296875 C-7.99685604 6.02720195 -15.98629371 8.92274806 -28.22021484 17.55737305 C-36.71007636 23.49987384 -44.58669136 26.66168915 -55.11328125 26.5703125 C-55.77328125 26.2403125 -56.43328125 25.9103125 -57.11328125 25.5703125 C-56.9091333 19.85416989 -55.97335483 15.96008297 -52.265625 11.51953125 C-42.44772023 2.62818011 -12.17689797 -8.23797534 0 0 Z " fill="#000000" transform="translate(288.11328125,394.4296875)"/>
<path d="M0 0 C4.87644885 3.29675416 4.87644885 3.29675416 6.8984375 5.0625 C6.8984375 5.7225 6.8984375 6.3825 6.8984375 7.0625 C6.23328125 6.794375 5.568125 6.52625 4.8828125 6.25 C1.31378739 4.82986436 -2.26402191 3.43500606 -5.8515625 2.0625 C-6.51671875 1.80210937 -7.181875 1.54171875 -7.8671875 1.2734375 C-23.37037706 -4.62970006 -41.71946007 -5.73424293 -57.1015625 1.0625 C-63.75256917 4.11932028 -69.25901932 7.66695956 -74.54296875 12.7421875 C-76.1015625 14.0625 -76.1015625 14.0625 -78.1015625 14.0625 C-77.89922415 11.83073823 -77.66353976 9.60198507 -77.4140625 7.375 C-77.28644531 6.13363281 -77.15882813 4.89226562 -77.02734375 3.61328125 C-75.64003522 -1.7076616 -72.83945263 -3.88860991 -68.234375 -6.66796875 C-67.24179687 -7.14878906 -66.24921875 -7.62960937 -65.2265625 -8.125 C-64.23914063 -8.61355469 -63.25171875 -9.10210937 -62.234375 -9.60546875 C-41.17059754 -18.56151378 -18.48233318 -11.54563886 0 0 Z " fill="#000000" transform="translate(437.1015625,457.9375)"/>
<path d="M0 0 C2.46342787 1.87733351 4.7713073 3.85013566 7 6 C6.67 6.66 6.34 7.32 6 8 C4.48986328 7.51660156 4.48986328 7.51660156 2.94921875 7.0234375 C-12.23732071 2.7127644 -25.51859604 8.50800019 -38.86279297 15.18164062 C-49.48749833 20.41210976 -61.63182123 22.25114108 -73.1875 18.75 C-76.4991359 17.44409075 -78.75722107 15.82785169 -81 13 C-79.88625 13.165 -78.7725 13.33 -77.625 13.5 C-63.59896869 15.15157135 -54.31594528 11.63913975 -42.50195312 4.29711914 C-29.92970094 -3.45716949 -13.49449612 -8.80075834 0 0 Z " fill="#000000" transform="translate(314,412)"/>
<path d="M0 0 C0.66 0 1.32 0 2 0 C1.566875 1.051875 1.566875 1.051875 1.125 2.125 C0.75375 3.07375 0.3825 4.0225 0 5 C-0.37125 5.886875 -0.7425 6.77375 -1.125 7.6875 C-3.01445939 14.84045342 -2.66715844 21.14979618 0.68359375 27.78125 C5.57683111 36.02860555 12.29109861 43.64554931 21 48 C21.08150744 50.06183633 21.1394194 52.12461349 21.1875 54.1875 C21.23970703 55.91033203 21.23970703 55.91033203 21.29296875 57.66796875 C20.97622579 61.27039199 20.08533398 63.09366839 18 66 C17.505 65.34 17.01 64.68 16.5 64 C12.09219357 58.71063229 7.21470989 53.97896109 1.9375 49.5625 C-4.76784395 43.74152228 -10.56512449 36.99385885 -12 28 C-12.61378484 17.93991676 -8.35435251 10.05194693 -2.25 2.3125 C-1.5075 1.549375 -0.765 0.78625 0 0 Z " fill="#000000" transform="translate(255,616)"/>
<path d="M0 0 C3 2 3 2 3.73828125 4.57421875 C3.92777344 5.60160156 4.11726563 6.62898437 4.3125 7.6875 C5.46098967 12.88984779 6.83855942 15.7627755 10.890625 19.20703125 C12.69794727 22.12802041 11.58929108 24.70063584 11 28 C9.87381595 43.25927088 11.55281887 55.79394006 20.4140625 68.66015625 C21.81270377 70.72366886 22.94807022 72.74512081 24 75 C16.35834481 74.61791724 11.32213205 69.59099288 6.25 64.3125 C-0.15558836 56.48702574 -1.61878372 47.72934575 -1.3125 37.875 C-1.29703125 36.86179687 -1.2815625 35.84859375 -1.265625 34.8046875 C-1.20552084 31.5350211 -1.10869347 28.26839851 -1 25 C-0.96181152 23.83114258 -0.92362305 22.66228516 -0.88427734 21.45800781 C-0.63899957 14.30293258 -0.34295794 7.15103795 0 0 Z " fill="#000000" transform="translate(431,537)"/>
<path d="M0 0 C13.35684747 10.4239453 23.47541668 28.88988616 29.4375 44.5625 C24.81278832 43.07289249 21.44458954 40.43640834 17.8125 37.3125 C17.20075928 36.78744873 16.58901855 36.26239746 15.95874023 35.72143555 C9.53532483 30.03002377 4.46982768 23.47661065 -0.5625 16.5625 C-6.58633406 8.30984733 -13.03977593 0.71195888 -23.5625 -1.4375 C-28.87906161 -2.03154438 -34.21872685 -2.24943031 -39.5625 -2.4375 C-38.5625 -4.4375 -38.5625 -4.4375 -35.4375 -5.5625 C-22.91848684 -8.37702634 -10.67096772 -7.09921919 0 0 Z " fill="#000000" transform="translate(421.5625,403.4375)"/>
<path d="M0 0 C1.98 0.66 3.96 1.32 6 2 C5.95875 3.175625 5.9175 4.35125 5.875 5.5625 C5.875 10.54982408 6.35424463 15.35424463 10 19 C12.57061311 19.64767793 12.57061311 19.64767793 15 20 C15.12117188 20.83402344 15.24234375 21.66804687 15.3671875 22.52734375 C16.48246725 30.09666638 16.48246725 30.09666638 18.125 37.5625 C19.4210494 42.98970686 19.16887104 48.45540097 19 54 C16.74609375 54.73046875 16.74609375 54.73046875 14 55 C6.07391765 49.33414923 0.8436981 38.46289068 -1.375 29.1875 C-2.84222872 20.01361537 -2.64538248 10.14101377 -1 1 C-0.67 0.67 -0.34 0.34 0 0 Z " fill="#000000" transform="translate(444,558)"/>
<path d="M0 0 C0 0.99 0 1.98 0 3 C-2.31237838 3.33417597 -4.62490604 3.66731915 -6.9375 4 C-8.22527344 4.185625 -9.51304687 4.37125 -10.83984375 4.5625 C-14 5 -14 5 -15 5 C-15.7425 5.845625 -16.485 6.69125 -17.25 7.5625 C-20 10 -20 10 -22.41796875 9.85546875 C-25.28914888 8.90420029 -26.80886837 7.74743844 -29.0625 5.75 C-38.42634437 -1.87282808 -48.56321245 -4.18305307 -60.3125 -4.0625 C-61.56643555 -4.05573242 -61.56643555 -4.05573242 -62.84570312 -4.04882812 C-64.89716649 -4.03710548 -66.94859273 -4.01917203 -69 -4 C-66.2688034 -6.93796855 -63.97171202 -7.90671465 -60.125 -9.125 C-59.09632813 -9.45757812 -58.06765625 -9.79015625 -57.0078125 -10.1328125 C-38.89974277 -15.35358066 -15.33437455 -11.1311906 0 0 Z M-21 0 C-20.67 0.66 -20.34 1.32 -20 2 C-19.34 1.67 -18.68 1.34 -18 1 C-18.99 0.67 -19.98 0.34 -21 0 Z " fill="#000000" transform="translate(451,472)"/>
<path d="M0 0 C-1 2 -1 2 -3.20703125 3.07421875 C-6.07165248 4.02375054 -8.69561348 4.44899977 -11.6875 4.8125 C-22.00808599 6.4799631 -28.58768172 11.05499048 -36.06640625 18.20703125 C-38 20 -38 20 -39 20 C-38.71367048 12.75586302 -37.96004999 7.81491727 -32.5078125 2.5625 C-23.52980972 -5.29883577 -10.83554741 -1.95738921 0 0 Z " fill="#000000" transform="translate(384,436)"/>
<path d="M0 0 C0.66 0 1.32 0 2 0 C-0.54668815 10.52631104 -5.35297855 23.89485707 -14 31 C-16.62072981 32.58385304 -19.17572521 33.78264018 -22 35 C-23.09915544 26.93952675 -18.96252996 20.0743419 -14.32421875 13.6953125 C-10.32820066 8.97358077 -5.7232091 4.97440766 -1 1 C-0.67 0.67 -0.34 0.34 0 0 Z " fill="#000000" transform="translate(374,499)"/>
<path d="M0 0 C-1.39534063 3.36607947 -2.83207035 4.79793192 -5.875 6.75 C-11.95365032 11.11077088 -13.9003054 17.00101799 -16 24 C-16.66 24 -17.32 24 -18 24 C-18.66 22.35 -19.32 20.7 -20 19 C-21.485 25.435 -21.485 25.435 -23 32 C-26.52272952 26.71590571 -25.91589971 19.19054269 -25 13 C-22.97860476 7.63359127 -19.33087436 3.16153664 -14.14453125 0.57421875 C-9.53096284 -0.66110831 -4.7275695 -0.27946224 0 0 Z " fill="#000000" transform="translate(223,422)"/>
<path d="M0 0 C16.91887207 4.71509549 30.40900613 17.86959246 43.57421875 29.00390625 C46.02838042 31.09140057 46.02838042 31.09140057 49 33 C48.505 33.99 48.505 33.99 48 35 C34.01765096 29.53943765 22.96326376 22.32127084 12 12 C10.90567393 11.00427692 9.80921233 10.01089718 8.7109375 9.01953125 C7.59892236 8.01306057 6.48694269 7.00655072 5.375 6 C4.57449219 5.27816528 4.57449219 5.27816528 3.7578125 4.54174805 C2.48622664 3.38163509 1.24034339 2.19345756 0 1 C0 0.67 0 0.34 0 0 Z " fill="#000000" transform="translate(392,409)"/>
<path d="M0 0 C3.78834395 1.26278132 4.22011278 2.52112952 6 6 C7.48094159 10.82461517 7.26312331 15.74649502 7.3125 20.75 C7.34150391 21.71421875 7.37050781 22.6784375 7.40039062 23.671875 C7.46389701 30.86275151 6.24171288 36.15432611 1.55200195 41.71777344 C0 43 0 43 -3 43 C-3.3587429 37.23354005 -2.90463225 32.17443448 -1.5 26.5625 C0.57653012 17.73968423 0.2594622 9.01390888 0 0 Z " fill="#000000" transform="translate(484,416)"/>
<path d="M0 0 C2.7594863 2.7594863 3.44827181 5.98144074 4.5625 9.625 C4.78357422 10.31207031 5.00464844 10.99914062 5.23242188 11.70703125 C9.22187866 24.55525161 8.14998714 37.91913689 7.5625 51.1875 C7.52334473 52.10877686 7.48418945 53.03005371 7.44384766 53.97924805 C7.40179199 54.84590088 7.35973633 55.71255371 7.31640625 56.60546875 C7.27974854 57.38043701 7.24309082 58.15540527 7.20532227 58.95385742 C7 61 7 61 6 64 C3.01443411 56.60098888 1.92178955 49.92872484 1.71875 41.9140625 C1.70065781 41.25872528 1.68256561 40.60338806 1.66392517 39.92819214 C1.62572957 38.53965517 1.58917443 37.15107222 1.5541687 35.76245117 C1.46331156 32.17730509 1.35938352 28.59255454 1.25390625 25.0078125 C1.23344742 24.30952332 1.21298859 23.61123413 1.19190979 22.89178467 C0.95984863 15.24945622 0.53982268 7.62643109 0 0 Z " fill="#000000" transform="translate(422,519)"/>
<path d="M0 0 C-0.90943038 10.48118508 -6.25596848 17.98565944 -14.125 24.75 C-14.77855469 25.28238281 -15.43210937 25.81476563 -16.10546875 26.36328125 C-18.10000907 28.08639959 -19.74788562 29.91722123 -21.4375 31.9375 C-22.283125 32.948125 -23.12875 33.95875 -24 35 C-24.33 35 -24.66 35 -25 35 C-23.59960125 21.52543157 -15.75401643 10.90259386 -6 2 C-3.74298162 0.64179425 -2.61601263 0 0 0 Z " fill="#000000" transform="translate(380,482)"/>
<path d="M0 0 C5.63491318 1.36603956 8.74895222 5.48064222 12 10 C15.84195626 16.6189492 15.89475914 24.30080698 14.48828125 31.6875 C13.81410416 36.26111739 13.8947039 40.75960544 13.9375 45.375 C13.94201172 46.30183594 13.94652344 47.22867188 13.95117188 48.18359375 C13.96288426 50.45579709 13.97928628 52.72786388 14 55 C9.87534544 51.29514863 9.19328375 46.74679981 8.81738281 41.40478516 C8.72314381 38.54062886 8.67101304 35.67781458 8.625 32.8125 C8.28202262 21.41099083 7.07879399 11.35412063 0 2 C0 1.34 0 0.68 0 0 Z " fill="#000000" transform="translate(461,400)"/>
<path d="M0 0 C6.79258863 6.27840861 10.43288681 15.04607546 12.9609375 23.8125 C12.6309375 24.4725 12.3009375 25.1325 11.9609375 25.8125 C11.46464844 25.11125 10.96835937 24.41 10.45703125 23.6875 C2.27116846 12.25525139 -5.37207554 1.64297117 -20.0390625 -1.1875 C-23.7010163 -1.61041586 -27.36163137 -1.9348013 -31.0390625 -2.1875 C-30.0390625 -4.1875 -30.0390625 -4.1875 -27.95703125 -4.890625 C-17.82909215 -6.91911066 -8.48038794 -6.36794473 0 0 Z " fill="#000000" transform="translate(427.0390625,398.1875)"/>
<path d="M0 0 C-0.268125 0.515625 -0.53625 1.03125 -0.8125 1.5625 C-1.204375 2.366875 -1.59625 3.17125 -2 4 C-2.53625 5.0725 -3.0725 6.145 -3.625 7.25 C-5.84821487 13.31331329 -5.2632216 18.68389198 -4 25 C-14.19031142 24.80968858 -14.19031142 24.80968858 -17.1875 21.8125 C-18.13570674 18.5302459 -18.56529786 16.39178714 -18 13 C-16 10.5625 -16 10.5625 -13 8 C-12.33742187 7.39542969 -11.67484375 6.79085938 -10.9921875 6.16796875 C-4.18355397 0 -4.18355397 0 0 0 Z " fill="#000000" transform="translate(231,396)"/>
<path d="M0 0 C0.99 0.33 1.98 0.66 3 1 C2.401875 2.155 1.80375 3.31 1.1875 4.5 C-0.2513334 7.3524241 -1.45915361 10.16847041 -2.5 13.1875 C-3.98751703 17.31678224 -5.9450886 20.9725443 -10 23 C-14.72722742 23.56652431 -18.00700352 23.64848749 -22.0625 21 C-22.701875 20.34 -23.34125 19.68 -24 19 C-23.67 18.34 -23.34 17.68 -23 17 C-22.0925 17.0825 -21.185 17.165 -20.25 17.25 C-17.01917412 17.29400325 -17.01917412 17.29400325 -15 15.5 C-13.85550418 14.06938022 -12.73048852 12.62141936 -11.66796875 11.12890625 C-8.22865664 6.32838881 -5.1355556 3.00381554 0 0 Z " fill="#000000" transform="translate(463,534)"/>
<path d="M0 0 C-2.01053021 4.05356969 -4.13818854 8.03233083 -6.3125 12 C-6.69083984 12.7115625 -7.06917969 13.423125 -7.45898438 14.15625 C-10.34432362 19.38989411 -13.11355907 23.03785302 -19 25 C-21.33299825 25.03954234 -23.66708189 25.04401732 -26 25 C-25.2575 24.443125 -24.515 23.88625 -23.75 23.3125 C-17.98566085 18.46521481 -16.1432989 13.98498227 -14.125 6.83984375 C-11.2008501 -0.54160408 -7.21847564 -1.20307927 0 0 Z " fill="#000000" transform="translate(477,534)"/>
<path d="M0 0 C0.33 0 0.66 0 1 0 C6.85365854 32.43902439 6.85365854 32.43902439 3 44 C2.34 44 1.68 44 1 44 C0.87882812 43.10539063 0.75765625 42.21078125 0.6328125 41.2890625 C-0.50119392 33.06936457 -0.50119392 33.06936457 -2.125 24.9375 C-3.88754302 16.39269142 -4.33072138 7.75920915 0 0 Z " fill="#000000" transform="translate(463,565)"/>
<path d="M0 0 C1.32 0.66 2.64 1.32 4 2 C3.73703125 2.51433594 3.4740625 3.02867187 3.203125 3.55859375 C2.26074264 5.47089561 1.3636565 7.40553191 0.484375 9.34765625 C-0.09331954 10.58613838 -0.67145547 11.82441471 -1.25 13.0625 C-1.52457031 13.68705078 -1.79914063 14.31160156 -2.08203125 14.95507812 C-3.63364913 18.21486726 -4.89149137 19.92819282 -7.921875 21.93359375 C-10.87108123 22.95533652 -12.91443434 23.27225579 -16 23 C-15.64808594 22.57332031 -15.29617188 22.14664063 -14.93359375 21.70703125 C-10.74354151 16.40109043 -7.6562935 10.78787355 -4.61328125 4.7578125 C-3 2 -3 2 0 0 Z " fill="#000000" transform="translate(478,536)"/>
<path d="M0 0 C3.59169824 3.41905589 4.82403522 6.28741255 5.3359375 11.26953125 C5.43860515 20.58148689 4.4665124 25.94164402 -1.5625 33 C-4 35 -4 35 -7 35 C-6.00718233 33.00100837 -5.0052131 31.00989505 -3.96484375 29.03515625 C-3.62582031 28.38417969 -3.28679687 27.73320312 -2.9375 27.0625 C-2.42509766 26.08990234 -2.42509766 26.08990234 -1.90234375 25.09765625 C0.39030444 19.76799358 0.12092524 14.38171334 0.0625 8.6875 C0.05798828 7.85154297 0.05347656 7.01558594 0.04882812 6.15429688 C0.03710548 4.10283351 0.01917203 2.05140727 0 0 Z " fill="#000000" transform="translate(492,425)"/>
<path d="M0 0 C6.05009801 -0.29710303 10.41647076 0.47728676 16 2.75 C16.69480469 3.02150879 17.38960938 3.29301758 18.10546875 3.57275391 C22.87661081 5.46487427 27.48425606 7.55397203 32 10 C32 11.65 32 13.3 32 15 C26.9849641 14.41868936 23.14816723 12.09471306 18.8125 9.6875 C12.68196533 6.35392712 6.59940703 3.31871058 0 1 C0 0.67 0 0.34 0 0 Z " fill="#000000" transform="translate(418,439)"/>
<path d="M0 0 C3.75708502 1.68421053 3.75708502 1.68421053 5.25 3.625 C8.19241954 5.93690107 11.35648824 5.1791891 15 5 C13.84826645 7.46800047 12.95216435 9.04783565 11 11 C8.125 11.4375 8.125 11.4375 5 11 C1.39683978 7.68898791 0.44729476 4.8084187 0 0 Z " fill="#000000" transform="translate(435,540)"/>
<path d="M0 0 C0.66 0 1.32 0 2 0 C2.46557346 3.18141867 2.50963377 5.25343123 0.6640625 7.95703125 C-0.84258024 9.6935608 -2.37936464 11.369718 -4 13 C-4.66 12.67 -5.32 12.34 -6 12 C-5.19024636 10.18627137 -4.37711979 8.37404826 -3.5625 6.5625 C-2.88380859 5.04849609 -2.88380859 5.04849609 -2.19140625 3.50390625 C-1 1 -1 1 0 0 Z " fill="#000000" transform="translate(481,541)"/>
<path d="M0 0 C3 0 3 0 5.15429688 1.60449219 C7.53231762 4.6908863 7.515724 6.4566053 7.53125 10.328125 C7.53906494 11.59148682 7.54687988 12.85484863 7.55493164 14.15649414 C7.5384886 15.52101988 7.52013594 16.88552376 7.5 18.25 C7.49418411 19.28494095 7.49418411 19.28494095 7.48825073 20.34078979 C7.40705012 32.68060535 5.78877166 44.43267881 3.44873047 56.546875 C0.51719575 72.57302347 2.971256 87.04407738 9 102 C9.3815625 102.95648437 9.763125 103.91296875 10.15625 104.8984375 C10.4346875 105.59195313 10.713125 106.28546875 11 107 C2.15878237 105.31409154 -6.10803045 96.19407287 -11 89 C-11.99 89.495 -11.99 89.495 -13 90 C-18.41816936 80.09426288 -20.3172803 72.26345071 -20 61 C-21.485 65.95 -21.485 65.95 -23 71 C-25 69 -25 69 -25.5 65.0625 C-25.17567509 54.83004922 -17.18067823 46.16623159 -11.31542969 38.27734375 C-6.58303897 31.80433873 -2.96135873 25.15563625 -1.8125 17.125 C-1.66683594 16.12210937 -1.52117187 15.11921875 -1.37109375 14.0859375 C-0.80739357 9.39832548 -0.35218203 4.70811772 0 0 Z M3 6 C2.34 13.26 1.68 20.52 1 28 C4.30171338 23.04742993 4.11722879 18.54348007 4.0625 12.6875 C4.05347656 11.43324219 4.04445313 10.17898438 4.03515625 8.88671875 C4.02355469 7.93410156 4.01195312 6.98148437 4 6 C3.67 6 3.34 6 3 6 Z M0 28 C1 31 1 31 1 31 Z M-1 31 C0 34 0 34 0 34 Z M-2 34 C-1 37 -1 37 -1 37 Z M-3 37 C-2 39 -2 39 -2 39 Z M-4 39 C-3 41 -3 41 -3 41 Z M-5 42 C-4 44 -4 44 -4 44 Z M-6 44 C-5 46 -5 46 -5 46 Z M-7 46 C-6 48 -6 48 -6 48 Z M-8 48 C-9.14973839 50.581658 -10.29490359 53.16518307 -11.4375 55.75 C-11.76298828 56.47960937 -12.08847656 57.20921875 -12.42382812 57.9609375 C-12.73642578 58.66992188 -13.04902344 59.37890625 -13.37109375 60.109375 C-13.65911865 60.75874023 -13.94714355 61.40810547 -14.24389648 62.07714844 C-15.81699717 66.07771061 -16.16042884 69.64401329 -16.1875 73.9375 C-16.20167969 74.95714844 -16.21585937 75.97679687 -16.23046875 77.02734375 C-15.99444914 80.07159667 -15.28252995 82.24737643 -14 85 C-12.94551934 81.83655803 -13.0917291 80.74644099 -13.625 77.5625 C-14.61412543 68.75029165 -11.66005703 60.59945878 -7.671875 52.83984375 C-6.71597891 50.8146264 -6.71597891 50.8146264 -8 48 Z M-13 85 C-12 87 -12 87 -12 87 Z" fill="#000000" transform="translate(406,491)"/>
<path d="M0 0 C0.66 0 1.32 0 2 0 C2.63529814 2.6645514 3.25810738 5.33117377 3.875 8 C4.04902344 8.72445313 4.22304688 9.44890625 4.40234375 10.1953125 C7.95995924 25.74340985 8.48956459 41.50864292 9.02905273 57.38110352 C9.50895614 71.08141091 10.26284904 84.044232 16.875 96.375 C17.20113281 97.02082031 17.52726562 97.66664063 17.86328125 98.33203125 C19.60593675 101.70206931 21.51334549 104.79092566 23.7578125 107.8515625 C26 111 26 111 26 113 C15.08395935 110.44994132 7.56287596 105.11788874 1 96 C-4.01204267 87.22502187 -5.39046023 77.85412108 -5.375 67.875 C-5.37556396 66.93358154 -5.37612793 65.99216309 -5.37670898 65.0222168 C-5.23927832 55.93001443 -3.74930189 47.22814537 -1.97265625 38.33203125 C-0.17266708 29.0131863 0.14539511 19.78167214 0.0625 10.3125 C0.05798828 9.31283203 0.05347656 8.31316406 0.04882812 7.28320312 C0.03721185 4.85540203 0.02088168 2.427736 0 0 Z" fill="#000000" transform="translate(414,495)"/>
</svg>

