<?xml version="1.0" encoding="UTF-8"?>
<svg version="1.1" xmlns="http://www.w3.org/2000/svg" width="1350" height="1080">
<path d="M0 0 C1.17625946 -0.00287018 2.35251892 -0.00574036 3.56442261 -0.00869751 C6.04718509 -0.01073275 8.5299638 -0.00524086 11.01269531 0.00732422 C14.77185898 0.023298 18.52993329 0.00750071 22.2890625 -0.01171875 C56.02832248 -0.04370428 56.02832248 -0.04370428 66.6796875 10.3984375 C76.67886358 22.76484277 78.1062612 35.99275944 76.6796875 51.3984375 C74.63222768 61.5316285 68.95930995 70.28728759 60.6796875 76.3984375 C61.2365625 76.65496094 61.7934375 76.91148437 62.3671875 77.17578125 C71.62465766 81.82015395 77.44061194 88.30285794 80.98828125 98.0390625 C85.42373517 113.17473576 83.48304412 130.23589383 76.1171875 144.046875 C70.90885037 152.5670352 64.52477891 157.31090485 55.1796875 160.6484375 C46.83327807 162.43695381 38.5520352 162.56963234 30.05078125 162.6015625 C28.8617067 162.60726257 27.67263214 162.61296265 26.44752502 162.61883545 C23.94557575 162.62823846 21.44361434 162.63480061 18.94165039 162.63867188 C15.12559528 162.64841603 11.31007055 162.67950035 7.49414062 162.7109375 C5.05469067 162.71746505 2.6152369 162.72271649 0.17578125 162.7265625 C-0.95775284 162.7389093 -2.09128693 162.7512561 -3.25917053 162.76397705 C-16.77752085 162.7261139 -16.77752085 162.7261139 -21.8374176 157.97344971 C-27.97791616 150.28587203 -27.61318515 140.50690833 -27.57910156 131.13671875 C-27.5826062 129.9404184 -27.58611084 128.74411804 -27.58972168 127.51156616 C-27.59697681 124.25534455 -27.5953312 120.9992876 -27.58896351 117.7430687 C-27.58386628 114.32000152 -27.58860524 110.8969446 -27.59173584 107.47387695 C-27.5953647 101.72768202 -27.59060483 95.98153865 -27.58105469 90.23535156 C-27.5701722 83.61141864 -27.57369855 76.98760888 -27.5847075 70.36367893 C-27.59381125 64.65553776 -27.59505061 58.94743347 -27.58983016 53.23928738 C-27.58672738 49.83924277 -27.5862542 46.43925588 -27.59290314 43.03921509 C-27.59799986 39.2461116 -27.59021365 35.45324236 -27.57910156 31.66015625 C-27.58315002 30.54716156 -27.58719849 29.43416687 -27.59136963 28.28744507 C-27.54608687 19.91506678 -27.2613255 11.61726778 -21.83810425 4.82315063 C-15.97984318 -0.67585244 -7.45600044 -0.04050458 0 0 Z M5.6796875 31.3984375 C5.6796875 42.2884375 5.6796875 53.1784375 5.6796875 64.3984375 C10.59875 64.429375 10.59875 64.429375 15.6171875 64.4609375 C16.63159912 64.4700415 17.64601074 64.47914551 18.69116211 64.48852539 C31.06472316 64.84449683 31.06472316 64.84449683 41.6796875 59.3984375 C45.69823577 54.04037315 45.32171279 47.80989556 44.6796875 41.3984375 C43.39027549 37.53020148 42.48781701 35.99935432 39.2421875 33.5859375 C34.85098165 31.55098845 31.22131808 31.27795811 26.3828125 31.30078125 C25.29645508 31.30327881 24.21009766 31.30577637 23.09082031 31.30834961 C21.03105957 31.32200562 21.03105957 31.32200562 18.9296875 31.3359375 C14.5571875 31.3565625 10.1846875 31.3771875 5.6796875 31.3984375 Z M5.6796875 93.3984375 C5.6796875 105.6084375 5.6796875 117.8184375 5.6796875 130.3984375 C10.4646875 130.4603125 15.2496875 130.5221875 20.1796875 130.5859375 C21.67306641 130.61324951 23.16644531 130.64056152 24.70507812 130.66870117 C35.73846622 130.97222902 35.73846622 130.97222902 45.22045898 125.98120117 C49.83365445 120.75355807 50.03401799 116.17031898 49.953125 109.48046875 C49.56360457 105.09001703 48.49532663 101.81507562 45.6796875 98.3984375 C40.05236482 93.82457096 34.07034783 93.26879978 27.06640625 93.30078125 C25.94194092 93.30327881 24.81747559 93.30577637 23.65893555 93.30834961 C22.24265869 93.31745361 20.82638184 93.32655762 19.3671875 93.3359375 C12.591875 93.366875 12.591875 93.366875 5.6796875 93.3984375 Z " fill="#000000" transform="translate(894.3203125,404.6015625)"/>
<path d="M0 0 C1.06848679 -0.00637985 2.13697357 -0.0127597 3.23783875 -0.01933289 C4.38371964 -0.02044571 5.52960052 -0.02155853 6.71020508 -0.02270508 C7.90019608 -0.02603348 9.09018707 -0.02936188 10.3162384 -0.03279114 C12.83370579 -0.03785049 15.35117988 -0.04019977 17.86865234 -0.04003906 C21.6981123 -0.04221833 25.52728072 -0.06036505 29.35668945 -0.0793457 C31.80786035 -0.08228136 34.25903261 -0.084265 36.71020508 -0.08520508 C37.84596481 -0.09239059 38.98172455 -0.09957611 40.15190125 -0.10697937 C51.49814866 -0.07478359 62.62038308 1.21994183 71.55004883 8.86401367 C80.04651504 17.838636 82.87114144 28.95790603 83.85473633 40.95776367 C83.46744947 52.05239306 80.59660367 63.09089633 72.59692383 71.09057617 C70.96768697 72.50873781 69.26194578 73.83828449 67.54223633 75.14526367 C68.53223633 75.91870117 68.53223633 75.91870117 69.54223633 76.70776367 C70.53223633 77.51213867 71.52223633 78.31651367 72.54223633 79.14526367 C73.18161133 79.65444336 73.82098633 80.16362305 74.47973633 80.68823242 C83.75934852 88.36851751 88.08420057 97.33891064 89.35473633 109.27026367 C90.20136608 124.35085612 87.05725286 138.26805046 77.54223633 150.14526367 C69.57689191 159.00342691 60.02844937 161.31874483 48.54223633 162.14526367 C44.36083266 162.28838069 40.18289159 162.30902911 35.99926758 162.31323242 C34.83143234 162.31656082 33.66359711 162.31988922 32.46037292 162.32331848 C30.00727733 162.32835299 27.55417497 162.33072789 25.10107422 162.33056641 C21.35543627 162.33276326 17.61008834 162.35098444 13.86450195 162.36987305 C11.47192483 162.37280565 9.07934632 162.37479134 6.68676758 162.37573242 C5.57308304 162.38291794 4.4593985 162.39010345 3.31196594 162.39750671 C-9.70835038 162.35929426 -9.70835038 162.35929426 -14.38354492 158.59448242 C-15.0699707 157.72243164 -15.0699707 157.72243164 -15.77026367 156.83276367 C-16.24077148 156.25913086 -16.7112793 155.68549805 -17.19604492 155.09448242 C-19.86152732 150.97660094 -20.70840022 147.38534701 -20.72518921 142.51066589 C-20.73371918 141.38785721 -20.74224915 140.26504852 -20.7510376 139.10821533 C-20.75013123 137.88576111 -20.74922485 136.66330688 -20.74829102 135.40380859 C-20.75836685 133.46152122 -20.75836685 133.46152122 -20.76864624 131.47999573 C-20.78628498 127.93439421 -20.79100075 124.38888928 -20.79227781 120.84324813 C-20.79370133 118.6254875 -20.79797475 116.40775128 -20.80327225 114.18999672 C-20.82176642 106.44549633 -20.82994375 98.70106471 -20.82836914 90.95654297 C-20.82716833 83.74978426 -20.84826022 76.54332532 -20.87985647 69.33664244 C-20.90605379 63.13942602 -20.91673497 56.94230729 -20.91545832 50.74503595 C-20.91494964 47.04809385 -20.92058014 43.35141818 -20.94181442 39.65453148 C-20.96487127 35.52778183 -20.95565489 31.40169884 -20.94360352 27.27490234 C-20.95484253 26.05852081 -20.96608154 24.84213928 -20.97766113 23.58889771 C-20.92227641 16.120171 -20.28303396 10.34471132 -15.04584312 4.59523296 C-10.39708338 0.36732377 -6.04588773 0.02462664 0 0 Z M11.54223633 31.14526367 C11.54223633 42.03526367 11.54223633 52.92526367 11.54223633 64.14526367 C16.67786133 64.20713867 16.67786133 64.20713867 21.91723633 64.27026367 C22.97475098 64.28847168 24.03226563 64.30667969 25.12182617 64.32543945 C32.4653893 64.367683 39.93800588 64.13909328 46.47973633 60.52026367 C50.56310137 55.81820696 51.86262997 51.22127291 51.47973633 45.02026367 C50.81571172 40.51734682 49.74721509 37.51460032 46.54223633 34.14526367 C39.32006246 30.51265655 32.49651027 30.79524566 24.54223633 30.95776367 C18.10723633 31.05057617 18.10723633 31.05057617 11.54223633 31.14526367 Z M11.54223633 93.14526367 C11.54223633 105.35526367 11.54223633 117.56526367 11.54223633 130.14526367 C16.32723633 130.20713867 21.11223633 130.26901367 26.04223633 130.33276367 C27.53561523 130.36007568 29.02899414 130.3873877 30.56762695 130.41552734 C42.03082688 130.49347811 42.03082688 130.49347811 51.91723633 125.20776367 C55.81026686 120.26660953 56.95189328 115.04675842 56.29614258 108.80151367 C55.39031889 103.99183038 54.19194799 100.59221357 50.54223633 97.14526367 C44.69730977 93.66317976 39.64478405 93.01694154 32.92895508 93.04760742 C31.80448975 93.05010498 30.68002441 93.05260254 29.52148438 93.05517578 C28.10520752 93.06427979 26.68893066 93.07338379 25.22973633 93.08276367 C18.45442383 93.11370117 18.45442383 93.11370117 11.54223633 93.14526367 Z " fill="#000000" transform="translate(554.457763671875,404.854736328125)"/>
<path d="M0 0 C5.32713709 2.6107771 7.35154113 6.2649839 9.35612297 11.76000977 C10.40025284 15.39244359 10.42327917 18.88262623 10.40063477 22.640625 C10.41110336 23.87666725 10.41110336 23.87666725 10.42178345 25.13768005 C10.44165337 27.84189298 10.44125973 30.54572076 10.44140625 33.25 C10.45319816 35.15080777 10.46656677 37.05160634 10.48143005 38.95239258 C10.51753973 43.95045259 10.53778319 48.94843127 10.55297852 53.94659424 C10.57782878 61.91572383 10.61811694 69.8846733 10.67487907 77.8536377 C10.69096465 80.61177993 10.69496435 83.36974678 10.69789124 86.12792969 C10.15104212 107.68354482 10.15104212 107.68354482 18 127 C23.01265765 131.19220023 28.44500571 132.33016749 34.84765625 132.2109375 C40.20983243 131.68542477 43.91983961 130.03215326 47.8125 126.3125 C53.44305119 117.78623676 54.14500072 108.91677254 54.15771484 98.90283203 C54.16279556 98.01893799 54.16787628 97.13504395 54.17311096 96.22436523 C54.18376543 94.31523739 54.19240467 92.40609743 54.19923019 90.49695206 C54.21108791 87.46941 54.2305572 84.44200623 54.25234985 81.41452026 C54.31374176 72.81008534 54.3679848 64.2056672 54.40136719 55.60107422 C54.42236988 50.32793795 54.4577127 45.05505893 54.50212479 39.78207016 C54.51623419 37.77995718 54.52499573 35.77779875 54.52817917 33.77563858 C54.53311558 30.96880592 54.55634204 28.16265079 54.58349609 25.35595703 C54.57898689 24.13058731 54.57898689 24.13058731 54.5743866 22.88046265 C54.68553548 15.10155451 56.34492787 7.65507213 62 2 C66.48016741 -0.71496226 70.90331647 -0.64514981 76 0 C80.89472807 2.35672092 83.31615602 5.32812344 86 10 C86.91200511 12.73601534 87.12906103 14.34744582 87.14044189 17.16337585 C87.14615204 18.01103516 87.15186218 18.85869446 87.15774536 19.73204041 C87.15942215 21.12284569 87.15942215 21.12284569 87.16113281 22.54174805 C87.16858017 24.01078079 87.16858017 24.01078079 87.17617798 25.50949097 C87.19081749 28.76024069 87.19760846 32.01094143 87.203125 35.26171875 C87.20887979 37.52838644 87.21463749 39.79505412 87.22039795 42.0617218 C87.23091631 46.82573676 87.23675193 51.58973482 87.24023438 56.35375977 C87.24568761 62.42018527 87.26964373 68.48638274 87.29820633 74.55273724 C87.31696389 79.24317543 87.32204548 83.93356047 87.32357025 88.62403297 C87.32657335 90.85764612 87.33452135 93.09125886 87.34775543 95.32483482 C87.46726479 117.06668062 86.32194769 137.37147667 70.96875 154.23046875 C60.28051828 164.55080844 48.24702669 166.20627539 34.0625 166.3125 C32.80630859 166.34150391 31.55011719 166.37050781 30.25585938 166.40039062 C16.83250113 166.49048028 4.37772502 163.27315681 -5.92578125 154.328125 C-19.23521938 140.51700073 -22.13738774 120.7030834 -22.16113281 102.31445312 C-22.16609772 101.38003891 -22.17106262 100.44562469 -22.17617798 99.4828949 C-22.19069123 96.41567225 -22.19758159 93.34850123 -22.203125 90.28125 C-22.20595238 89.22841324 -22.20877975 88.17557648 -22.21169281 87.09083557 C-22.22663758 81.52490999 -22.23589818 75.95901005 -22.24023438 70.39306641 C-22.24572792 64.65668819 -22.26978815 58.92054625 -22.29820633 53.18424225 C-22.31685713 48.75920936 -22.3220395 44.3342333 -22.32357025 39.90916443 C-22.32658917 37.79453737 -22.33459189 35.67991112 -22.34775543 33.56532288 C-22.36487526 30.60521524 -22.3629217 27.64568439 -22.35644531 24.68554688 C-22.3656601 23.8198558 -22.37487488 22.95416473 -22.3843689 22.0622406 C-22.33146364 14.31420371 -20.56165002 7.73018487 -15 2 C-10.29636548 -0.88353247 -5.3419975 -0.84625703 0 0 Z " fill="#000000" transform="translate(1020,403)"/>
<path d="M0 0 C11.75106412 8.51952148 15.05372457 22.84100365 18.94921875 36.1484375 C19.45145149 37.83414859 19.95463269 39.51957735 20.45869446 41.20474243 C21.78114725 45.63575478 23.0900938 50.07064578 24.39630127 54.50646973 C25.68715077 58.88060034 26.99185917 63.2505895 28.29492188 67.62109375 C33.24796009 84.25554986 38.13189244 100.91047515 42.9737339 117.57762527 C43.45805235 119.24460167 43.94294404 120.91141164 44.428442 122.57804489 C45.09748046 124.87643102 45.76367596 127.17562096 46.42895508 129.47509766 C46.72344386 130.48480558 46.72344386 130.48480558 47.02388191 131.51491165 C49.66498932 140.67918855 51.21917849 149.10160532 46.5 157.8125 C43.52356717 161.23539775 40.66076596 164.49025076 36.01171875 165.18359375 C31.2512102 165.29552825 28.28058402 165.25246554 24.0625 162.875 C17.67632264 155.24273926 12.5 140.83651294 12.5 130.8125 C-2.35 131.1425 -17.2 131.4725 -32.5 131.8125 C-34.26465132 138.68853059 -34.26465132 138.68853059 -35.9987793 145.57226562 C-37.86674973 152.63005564 -40.24193474 158.56731247 -45.4765625 163.78125 C-49.59037007 165.87786235 -54.0339485 165.50506161 -58.5 164.8125 C-62.78989989 162.7192356 -65.44093713 159.03899748 -67.5 154.8125 C-69.88717025 146.89749769 -68.42199954 138.98579844 -66.2421875 131.21484375 C-65.8521907 129.77430885 -65.8521907 129.77430885 -65.45431519 128.30467224 C-61.27281478 113.07019318 -56.73379725 97.93124683 -52.23291016 82.78881836 C-51.16097371 79.18244467 -50.0926242 75.57504224 -49.02783203 71.96655273 C-38.97661925 37.9046025 -38.97661925 37.9046025 -34.0546875 22.77734375 C-33.61505173 21.3941671 -33.61505173 21.3941671 -33.16653442 19.98304749 C-30.29169064 11.35261266 -26.64862761 4.60575133 -18.74609375 -0.26953125 C-13.07023133 -2.58923154 -5.68952568 -1.93037478 0 0 Z M-10.5 43.8125 C-12.99875734 53.15182032 -15.48991046 62.49313736 -17.97424316 71.83630371 C-18.47144477 73.70516761 -18.96958067 75.57378288 -19.46777344 77.44238281 C-20.31577723 80.62723093 -21.15877374 83.81335606 -22 87 C-22.25475098 87.95398682 -22.50950195 88.90797363 -22.77197266 89.89086914 C-23.00190918 90.76606201 -23.2318457 91.64125488 -23.46875 92.54296875 C-23.66919922 93.29989014 -23.86964844 94.05681152 -24.07617188 94.83666992 C-24.60486768 96.96458313 -24.60486768 96.96458313 -24.5 99.8125 C-14.93 99.8125 -5.36 99.8125 4.5 99.8125 C1.58762037 87.24435707 -1.52497488 74.74114678 -4.75 62.25 C-5.21370192 60.44860895 -5.67724438 58.64717685 -6.140625 56.84570312 C-7.25858764 52.50082883 -8.3786763 48.15650802 -9.5 43.8125 C-9.83 43.8125 -10.16 43.8125 -10.5 43.8125 Z " fill="#000000" transform="translate(728.5,404.1875)"/>
<path d="M0 0 C0.33 0.99 0.66 1.98 1 3 C2.17458336 4.40950003 3.35356012 5.81566162 4.55859375 7.19921875 C6.14897237 9.18611453 7.42258064 11.26703994 8.75 13.4375 C14.41279117 21.99652787 22.23166145 26.37437015 32 29 C32.639375 29.17587646 33.27875 29.35175293 33.9375 29.53295898 C41.77901335 31.41011371 49.66487805 31.40703486 57.68359375 31.42553711 C60.1000078 31.43737754 62.51381376 31.48663505 64.9296875 31.53710938 C74.52572641 31.634304 82.54854799 30.44017553 91.56542969 27.12719727 C97.66482447 25.12542688 103.14968259 25.12297926 109.25 27 C113.12253752 29.81639092 116.01364436 33.2803085 119 37 C119.38478516 36.1646875 119.38478516 36.1646875 119.77734375 35.3125 C124.22472984 26.44767654 129.96299587 20.73769026 139.4375 17.5 C144.5 16 144.5 16 147 16 C147 16.66 147 17.32 147 18 C145.80987466 19.06609243 144.57121392 20.07832997 143.3125 21.0625 C139.49966524 24.28252652 137.29663788 27.43318727 135.10546875 31.88671875 C133.93640674 34.12156875 132.55847637 36.02176208 131 38 C131.66 37.67 132.32 37.34 133 37 C131.93807573 79.29998332 131.93807573 79.29998332 128 88 C125.42853943 85.42853943 125.19882003 83.3949583 124.375 79.875 C124.11460937 78.77929688 123.85421875 77.68359375 123.5859375 76.5546875 C123.39257812 75.71164062 123.19921875 74.86859375 123 74 C122.34 77.63 121.68 81.26 121 85 C118.27213091 83.63606545 118.11161717 82.16089808 116.9375 79.375 C114.17637969 73.63022132 110.3902656 70.30078062 105 67 C104.01 66.67 103.02 66.34 102 66 C102.59167969 66.4125 103.18335938 66.825 103.79296875 67.25 C111.24145573 72.69359244 115.50005782 78.05747555 118 87 C118.265625 90.32421875 118.265625 90.32421875 118.25 93.6875 C118.25773437 95.36392578 118.25773437 95.36392578 118.265625 97.07421875 C118 100 118 100 116 103 C115.608125 101.865625 115.21625 100.73125 114.8125 99.5625 C110.44402174 88.25233025 105.05225024 81.9341578 93.921875 76.49609375 C81.04714297 71.18447401 67.77112179 69.6308658 54 69 C54.74983154 69.29132813 55.49966309 69.58265625 56.2722168 69.8828125 C95.57487187 85.24989995 95.57487187 85.24989995 102.26953125 98.515625 C106.82721987 109.27370273 106.56856814 118.8083817 104 130 C104.57234375 129.66226563 105.1446875 129.32453125 105.734375 128.9765625 C109.35670217 127.41521458 112.16302825 128.36050471 116 129 C116.20625 128.21625 116.4125 127.4325 116.625 126.625 C118.48177118 121.72987597 121.06379319 117.33154707 124 113 C124.33 113 124.66 113 125 113 C125.20625 114.11375 125.4125 115.2275 125.625 116.375 C131.50855039 139.22879097 158.03148647 157.98784774 175.640625 171.5859375 C176.46127441 172.22072021 177.28192383 172.85550293 178.12744141 173.50952148 C179.77211762 174.77912149 181.42015605 176.04437973 183.07177734 177.30493164 C183.82410645 177.88364014 184.57643555 178.46234863 185.3515625 179.05859375 C186.03041504 179.57736084 186.70926758 180.09612793 187.40869141 180.63061523 C189 182 189 182 190 184 C184.11080997 182.36194715 179.0569714 179.45230788 173.75 176.5 C172.78143066 175.96536133 171.81286133 175.43072266 170.81494141 174.87988281 C168.82962074 173.78325429 166.84540572 172.68462173 164.86230469 171.58398438 C162.23992086 170.13277094 159.61031501 168.69607061 156.9765625 167.265625 C142.26071698 159.24535872 127.3640592 150.55609339 116 138 C115.1875 134.1875 115.1875 134.1875 115 131 C114.34 131.33 113.68 131.66 113 132 C113.38126631 137.33772833 115.36431618 140.27004659 119 144 C121.10460004 145.71032742 123.15276382 147.27974946 125.375 148.8125 C125.9844043 149.23917969 126.59380859 149.66585937 127.22167969 150.10546875 C138.37050145 157.80766958 150.23796692 164.31654342 162.1015625 170.8359375 C165.10881408 172.49287698 168.07169549 174.20597945 171 176 C164.1062174 178.29792753 153.42457365 171.27851411 146.99194336 168.12182617 C143.64447419 166.44665561 140.32096143 164.72696643 137 163 C136.39220703 162.68836914 135.78441406 162.37673828 135.15820312 162.05566406 C127.01926258 157.88014896 119.07385678 153.38390283 111.1875 148.75 C110.30868164 148.24243164 109.42986328 147.73486328 108.52441406 147.21191406 C107.70553711 146.72432617 106.88666016 146.23673828 106.04296875 145.734375 C105.31102295 145.30350586 104.57907715 144.87263672 103.82495117 144.42871094 C101.76224634 142.8138683 100.98165944 141.40267643 100 139 C99.51789063 139.75925781 99.03578125 140.51851562 98.5390625 141.30078125 C97.59160156 142.79158203 97.59160156 142.79158203 96.625 144.3125 C95.99851562 145.29863281 95.37203125 146.28476562 94.7265625 147.30078125 C93.50348387 149.21287929 92.2590644 151.1114034 91 153 C90.34 153 89.68 153 89 153 C89.10828125 151.81857422 89.10828125 151.81857422 89.21875 150.61328125 C90.72894573 132.88945639 91.07151749 116.88941487 79.2109375 102.54296875 C76.4052776 99.33448433 73.38847911 96.62310057 69.9375 94.125 C69.32463135 93.67576172 68.7117627 93.22652344 68.08032227 92.76367188 C61.16167811 87.85948097 53.780295 83.72383221 46.4375 79.5 C33.23831488 71.9033242 20.39906469 64.33185555 11 52 C10.67 52.99 10.34 53.98 10 55 C8.35086118 53.54540569 6.70578218 52.08620743 5.0625 50.625 C4.14597656 49.81289063 3.22945312 49.00078125 2.28515625 48.1640625 C0 46 0 46 -1 44 C-5.36539473 43.72135778 -8.50389495 44.04383482 -12.625 45.5625 C-16.09797354 46.80496072 -18.47715387 47.6012937 -22 46 C-23.12890625 43.94140625 -23.12890625 43.94140625 -24 42 C-17.1834265 40.2120463 -11.03482474 39.76331431 -4 40 C-4.32613281 39.3709375 -4.65226562 38.741875 -4.98828125 38.09375 C-7.68379232 32.8140469 -10.03249981 27.59184265 -12 22 C-12.62529897 27.0247239 -13.13012092 31.92528427 -13 37 C-16.79252296 32.86270222 -17.95214436 28.0149054 -18.0390625 22.5390625 C-17.58219139 15.46843825 -15.76779821 9.69496142 -10.625 4.6875 C-3.33333333 0 -3.33333333 0 0 0 Z M-2 4 C-4.5003835 12.67780156 -5.12331739 21.75336521 -1 30 C-1 21.42 -1 12.84 -1 4 C-1.33 4 -1.66 4 -2 4 Z M1 11 C0.46975107 18.82117173 1.87015305 25.78396396 5 33 C7.0109654 35.34196974 7.0109654 35.34196974 9 37 C8.56880859 35.71416016 8.56880859 35.71416016 8.12890625 34.40234375 C2.63737001 17.85172761 2.63737001 17.85172761 2 11 C1.67 11 1.34 11 1 11 Z M11 26 C12 28 12 28 12 28 Z M-1 30 C0 33 0 33 0 33 Z M16 32 C16.33 32.66 16.66 33.32 17 34 C17.66 33.67 18.32 33.34 19 33 C18.01 32.67 17.02 32.34 16 32 Z M67 34 C69.78823655 35.0326802 70.8677274 35.04509293 73.75 34.0625 C74.4925 33.711875 75.235 33.36125 76 33 C72.23375329 31.74458443 70.62811066 32.62938042 67 34 Z M0 33 C1 36 1 36 1 36 Z M19 34 C23.82252336 39.21394473 31.36742512 39.66571397 38.18359375 40.29296875 C47.07885088 40.52617774 59.40895407 40.06069729 67 35 C65.1746875 35.2165625 65.1746875 35.2165625 63.3125 35.4375 C62.62800781 35.51871094 61.94351563 35.59992188 61.23828125 35.68359375 C58.9784118 35.97413373 58.9784118 35.97413373 56.69458008 36.50708008 C51.95317707 37.37442561 47.18280443 37.22646118 42.375 37.25 C41.34503906 37.270625 40.31507813 37.29125 39.25390625 37.3125 C32.05498454 37.34872099 25.83575103 36.2452826 19 34 Z M1 36 C2 38 2 38 2 38 Z M9 37 C10.3089572 40.12197478 10.3089572 40.12197478 13 42 C11.6910428 38.87802522 11.6910428 38.87802522 9 37 Z M2 38 C3 40 3 40 3 40 Z M86 41 C92.27 40.67 98.54 40.34 105 40 C105 39.67 105 39.34 105 39 C102.39555652 38.94605295 99.79223002 38.90635531 97.1875 38.875 C96.08051758 38.84986328 96.08051758 38.84986328 94.95117188 38.82421875 C91.08753574 38.78925372 89.29096332 38.80602445 86 41 Z M77 43 C80.76624671 44.25541557 82.37188934 43.37061958 86 42 C82.38055101 40.65946334 80.42632833 41.38201162 77 43 Z M4 42 C5 44 5 44 5 44 Z M13 42 C13.33 42.66 13.66 43.32 14 44 C14.66 43.67 15.32 43.34 16 43 C15.01 42.67 14.02 42.34 13 42 Z M126 42 C127 44 127 44 127 44 Z M5 44 C5.33 44.99 5.66 45.98 6 47 C6 46.01 6 45.02 6 44 C5.67 44 5.34 44 5 44 Z M125 44 C122.79463821 48.0271824 121.54339792 51.43545749 121 56 C123.27426046 55.15570324 123.27426046 55.15570324 123.8515625 52.49609375 C124.10679687 51.48675781 124.36203125 50.47742188 124.625 49.4375 C124.88539063 48.42558594 125.14578125 47.41367187 125.4140625 46.37109375 C125.60742188 45.58863281 125.80078125 44.80617188 126 44 C125.67 44 125.34 44 125 44 Z M71 45 C70.34 45.66 69.68 46.32 69 47 C70.65 46.67 72.3 46.34 74 46 C73.01 45.67 72.02 45.34 71 45 Z M115 45 C116.32 46.65 117.64 48.3 119 50 C118.73323796 48.01508358 118.73323796 48.01508358 118 46 C117.01 45.67 116.02 45.34 115 45 Z M19 46 C21.79223884 49.35908431 25.5494468 51.06907562 29.375 53 C30.01566406 53.34289062 30.65632813 53.68578125 31.31640625 54.0390625 C42.15541249 59.53194381 53.8559096 60.4696492 65.8125 61.0625 C76.28423906 61.66438334 86.62492326 62.44208113 97 64 C89.26609078 58.84406052 78.35932984 59.43941207 69.375 58.875 C67.43947266 58.74544922 67.43947266 58.74544922 65.46484375 58.61328125 C62.31023419 58.40297395 59.15535909 58.19868732 56 58 C60.83101118 57.12782 65.66486883 56.27436875 70.50195312 55.43652344 C72.13952789 55.15036397 73.77629134 54.85951327 75.41210938 54.56347656 C86.40947776 52.57746532 96.81205216 51.58334539 108 52 C101.48172016 47.65448011 91.63491261 49.72171136 84.24609375 51.09375 C81.9752019 51.55586349 79.70568246 52.02476637 77.4375 52.5 C68.71382111 54.18956396 60.27389301 55.4766411 51.375 55.4375 C50.56603271 55.43492187 49.75706543 55.43234375 48.92358398 55.4296875 C43.13310076 55.28454745 37.64002604 54.28141985 32 53 C33 52 33 52 36.90234375 51.97265625 C38.58075849 52.00091296 40.25914362 52.03096677 41.9375 52.0625 C48.91737731 52.14077168 55.20771955 51.78158176 62 50 C62 49.67 62 49.34 62 49 C61.40316406 49.0721875 60.80632812 49.144375 60.19140625 49.21875 C47.47175928 50.57954433 35.60907733 51.26084389 23.44140625 46.875 C21.11845626 45.88753808 21.11845626 45.88753808 19 46 Z M7 47 C7.33 47.99 7.66 48.98 8 50 C8 49.01 8 48.02 8 47 C7.67 47 7.34 47 7 47 Z M62 48 C66 49 66 49 66 49 Z M111 53 C111.33 53.66 111.66 54.32 112 55 C112.66 54.67 113.32 54.34 114 54 C113.01 53.67 112.02 53.34 111 53 Z M115 56 C115.99 56.99 116.98 57.98 118 59 C117.67 58.01 117.34 57.02 117 56 C116.34 56 115.68 56 115 56 Z M119 60 C119.66 62.31 120.32 64.62 121 67 C121.77242269 65.16299211 121.77242269 65.16299211 122 63 C120.64555699 61.22809091 120.64555699 61.22809091 119 60 Z " fill="#000000" transform="translate(226,425)"/>
<path d="M0 0 C10.42022097 4.61030093 16.00710721 14.85004488 20 25 C21.24585377 29.30063401 22.23084328 33.59016812 23 38 C22.30987221 29.52128715 20.40064726 22.85700951 16.30053711 15.49560547 C15.48589739 14.02250599 14.7367299 12.5135683 14 11 C14.33 10.34 14.66 9.68 15 9 C15.99 9.66 16.98 10.32 18 11 C17.34 10.01 16.68 9.02 16 8 C18.86220521 8.61465669 21.16469023 9.49549945 23.71484375 10.92578125 C24.40126953 11.31056641 25.08769531 11.69535156 25.79492188 12.09179688 C26.50197266 12.49462891 27.20902344 12.89746094 27.9375 13.3125 C28.64068359 13.70373047 29.34386719 14.09496094 30.06835938 14.49804688 C36.9625389 18.39419519 41.6342531 22.3554293 45.9375 29 C46.370625 29.66136963 46.80375 30.32273926 47.25 31.00415039 C55.31037291 43.51427021 61.01585025 55.25747968 58.375 70.375 C53.74470431 88.45818183 38.08422807 100.19362695 24 111 C12.01435071 120.32723531 -0.68971201 131.13827204 -3.32421875 146.9453125 C-3.91329717 154.24988496 -1.04406703 160.06388732 3 166 C7.70440075 171.51581871 12.96212876 176.97475251 19 181 C19 181.66 19 182.32 19 183 C1.73057474 178.98829723 -12.09331481 167.44409826 -22 153 C-27.67729933 142.3610273 -31.12164971 132.56175916 -28.421875 120.39453125 C-23.9445697 108.89599717 -13.53430886 103.06363223 -3 98 C-4.37933339 91.56311084 -6.41498668 85.56645568 -9.25 79.625 C-9.79140625 78.48289062 -10.3328125 77.34078125 -10.890625 76.1640625 C-14.36794037 70.94808945 -18.29425575 68.20143138 -24.41015625 66.77734375 C-25.9577692 66.48037998 -27.5087648 66.20055942 -29.0625 65.9375 C-34.93650634 64.91868894 -39.21576138 63.84368397 -44 60 C-47.03123064 54.51491599 -47.1251661 48.26627774 -47.0625 42.125 C-47.05347656 40.97257813 -47.04445312 39.82015625 -47.03515625 38.6328125 C-47.02355469 37.76398437 -47.01195312 36.89515625 -47 36 C-43.92123817 39.07876183 -43.94472061 43.23533129 -43.3203125 47.4140625 C-42.55527741 51.83040144 -41.59628274 54.26574758 -38 57 C-26.34409872 60.88530043 -10.39464017 58.47884208 0.4375 53.3828125 C3.70397047 51.68395621 6.87676438 49.9494021 10 48 C11.42505859 47.11634766 11.42505859 47.11634766 12.87890625 46.21484375 C15.3172092 44.10662322 15.3172092 44.10662322 15.4296875 40.703125 C13.85377184 27.12159731 7.47232098 15.43290651 0.83862305 3.71728516 C0 2 0 2 0 0 Z M21 14 C22.36370299 16.99220268 23.94908083 19.29026529 26.125 21.75 C26.66382813 22.36359375 27.20265625 22.9771875 27.7578125 23.609375 C28.16773438 24.06828125 28.57765625 24.5271875 29 25 C29 21.24026115 28.03457593 20.54322371 25.5625 17.8125 C24.92441406 17.09707031 24.28632813 16.38164062 23.62890625 15.64453125 C23.09136719 15.10183594 22.55382812 14.55914062 22 14 C21.67 14 21.34 14 21 14 Z M30 25 C31.26974972 29.41522109 31.26974972 29.41522109 34 33 C33.50168276 29.31245243 32.89932357 27.39509338 30 25 Z M34 33 C35 36 35 36 35 36 Z M35 36 C35.33 42.6 35.66 49.2 36 56 C36.33 56 36.66 56 37 56 C37.05407567 53.41638482 37.093707 50.83390745 37.125 48.25 C37.14175781 47.52039063 37.15851563 46.79078125 37.17578125 46.0390625 C37.21372922 41.86478602 36.91514727 39.83029454 35 36 Z M16 47 C15.46246094 47.721875 14.92492187 48.44375 14.37109375 49.1875 C11.5942062 52.48133696 8.60942294 54.6079761 5.0625 57 C-1.59140179 61.33603952 -1.59140179 61.33603952 -7 67 C-7.2787385 70.12590974 -6.67507647 72.95242773 -6 76 C-5.81163574 76.8883252 -5.62327148 77.77665039 -5.42919922 78.69189453 C-4.80407211 81.49291647 -4.12944383 84.27728074 -3.4375 87.0625 C-3.20353516 88.02349609 -2.96957031 88.98449219 -2.72851562 89.97460938 C-2.15732057 92.31767482 -1.58107577 94.65936918 -1 97 C4.13756468 96.35983027 8.58790181 94.80299667 13.375 92.9375 C14.11105469 92.65583984 14.84710938 92.37417969 15.60546875 92.08398438 C17.4055736 91.39433382 19.2030621 90.69786068 21 90 C17.48130673 88.82710224 16.54503988 89.26803348 13.125 90.4375 C9.58942614 91.643055 6.74188461 92.16764716 3 92 C3.78503906 91.26136719 4.57007813 90.52273438 5.37890625 89.76171875 C12.03399466 83.38105605 17.49506799 77.12989187 22 69 C22.36996094 68.35675781 22.73992187 67.71351563 23.12109375 67.05078125 C24.09385452 65.33518132 24.09385452 65.33518132 25 63 C24.67 62.34 24.34 61.68 24 61 C23.360625 61.886875 22.72125 62.77375 22.0625 63.6875 C18.77922159 67.68247171 14.57645297 69.74667022 10 72 C10.33773437 71.38253906 10.67546875 70.76507812 11.0234375 70.12890625 C15.02239849 62.53550345 17.44496566 55.67683039 17 47 C16.67 47 16.34 47 16 47 Z M25 59 C26 61 26 61 26 61 Z " fill="#000000" transform="translate(246,492)"/>
<path d="M0 0 C11.58452586 5.40611207 19.43787386 15.28125613 24 27 C27.3792717 38.66291994 25.73424248 53.0576471 21 64 C20.61070312 64.91652344 20.22140625 65.83304688 19.8203125 66.77734375 C15.76140079 75.14734808 9.45247398 81.44621362 3 88 C2.26523437 88.76183594 1.53046875 89.52367187 0.7734375 90.30859375 C-1.74759387 92.88862798 -3.9816608 94.98777387 -7 97 C-6.34773438 97.09796875 -5.69546875 97.1959375 -5.0234375 97.296875 C1.59282795 98.42886142 6.56226528 99.80572692 10.8125 105.375 C12.11916951 108.26342733 12.63494364 110.8605153 13 114 C12.34773438 114.02578125 11.69546875 114.0515625 11.0234375 114.078125 C5.26945122 114.45154004 1.54168229 115.13957005 -3 119 C-5.35620437 122.53430656 -5.48991613 123.83571287 -5 128 C-2.45231918 132.89938619 0.37534108 135.267247 5 138 C2.54625693 140.56527685 1.16846003 141.93782842 -2.49609375 142.1328125 C-3.46675781 142.13023437 -4.43742187 142.12765625 -5.4375 142.125 C-6.40558594 142.12757813 -7.37367188 142.13015625 -8.37109375 142.1328125 C-11 142 -11 142 -14 141 C-14 142.98 -14 144.96 -14 147 C-23.88784602 142.39163737 -31.01460388 134.92104065 -35.375 125 C-38.1343302 117.39445121 -37.5620138 111.89429353 -34.3125 104.50390625 C-28.73845839 93.87009472 -19.17641652 86.2281904 -9.875 78.9375 C2.31291987 69.27987728 13.3114811 57.0903733 15.37890625 41.0625 C15.94489602 27.04055988 9.23651869 15.62658612 1.5625 4.375 C0 2 0 2 0 0 Z " fill="#000000" transform="translate(290,516)"/>
<path d="M0 0 C4.95 0 9.9 0 15 0 C20.44153223 10.28083955 25.87268283 20.55778088 31 31 C36.44399843 20.71940475 41.85150395 10.43247883 47 0 C51.95 0 56.9 0 62 0 C62 17.82 62 35.64 62 54 C58.04 54 54.08 54 50 54 C49.67 43.77 49.34 33.54 49 23 C44.71 31.58 40.42 40.16 36 49 C33.03 49 30.06 49 27 49 C25.41561407 46.00055183 23.83246546 43.00046119 22.25 40 C21.8065625 39.16082031 21.363125 38.32164062 20.90625 37.45703125 C20.24882813 36.20986328 20.24882813 36.20986328 19.578125 34.9375 C19.18012695 34.18339844 18.78212891 33.42929687 18.37207031 32.65234375 C16.54487882 29.12020703 14.77846105 25.5569221 13 22 C12.67 32.56 12.34 43.12 12 54 C8.04 54 4.08 54 0 54 C0 36.18 0 18.36 0 0 Z " fill="#000000" transform="translate(639,618)"/>
<path d="M0 0 C0.66157104 -0.00287018 1.32314209 -0.00574036 2.00476074 -0.00869751 C3.39299382 -0.01072422 4.78125637 -0.00529263 6.16943359 0.00732422 C8.27637488 0.0234003 10.38139856 0.00743027 12.48828125 -0.01171875 C13.84635834 -0.00973607 15.20443425 -0.00589187 16.5625 0 C17.78001953 0.00338379 18.99753906 0.00676758 20.25195312 0.01025391 C24.78319261 0.5086401 29.07812395 1.62701567 32.33984375 5.01953125 C35.73380209 12.03371181 36.09876127 19.5152464 33.59375 26.8984375 C30.8850358 30.63459502 28.57781933 33.0176548 23.97412109 33.9934082 C18.78688247 34.65143152 13.62853663 34.58289421 8.40625 34.5859375 C6.75882813 34.60430664 6.75882813 34.60430664 5.078125 34.62304688 C-9.26626402 34.64884614 -9.26626402 34.64884614 -14.05859375 30.99609375 C-18.65339035 24.56991914 -18.90398948 19.13185453 -18.21875 11.3984375 C-17.39604118 8.27610883 -16.46839953 5.73829854 -14.21875 3.3984375 C-9.2642554 0.91600004 -5.62326927 0.01562846 0 0 Z " fill="#000000" transform="translate(811.21875,490.6015625)"/>
<path d="M0 0 C1.875 0.3125 1.875 0.3125 4 1 C4.66 1.99 5.32 2.98 6 4 C7.258125 4.268125 8.51625 4.53625 9.8125 4.8125 C13.50757314 5.65900766 15.79355166 6.89728197 18.1328125 10.046875 C19.22467881 12.50603335 19.24347098 14.50303794 19.3125 17.1875 C19.58688847 24.32160029 23.52215708 28.72654945 28 34 C33.49417781 31.75624085 36.3696734 27.14842594 39 22 C39.49011172 19.10563943 39.62045999 16.35643606 39.69921875 13.42578125 C40 11 40 11 42.4375 7.875 C46.20713795 5.11672833 48.29491286 4.44646034 53 5 C55.9375 6.9375 55.9375 6.9375 58 10 C58.44875887 14.34831871 58.01093989 17.71041836 55.28515625 21.1875 C51.94330342 23.83813199 48.57703292 24.2070835 44.4609375 24.99609375 C41.81776502 25.76600621 41.81776502 25.76600621 40.83203125 28.2265625 C40.55746094 29.14179687 40.28289063 30.05703125 40 31 C39.56300781 31.95777344 39.12601563 32.91554688 38.67578125 33.90234375 C38.00095703 35.40474609 38.00095703 35.40474609 37.3125 36.9375 C36.85488281 37.93652344 36.39726563 38.93554688 35.92578125 39.96484375 C34.04667294 46.12546467 36.82537419 51.63425489 39.0625 57.375 C39.48499023 58.47908203 39.48499023 58.47908203 39.91601562 59.60546875 C40.60566618 61.4055736 41.30213932 63.2030621 42 65 C42.98742187 65.06058594 43.97484375 65.12117187 44.9921875 65.18359375 C46.91417969 65.30927734 46.91417969 65.30927734 48.875 65.4375 C50.78925781 65.55931641 50.78925781 65.55931641 52.7421875 65.68359375 C56 66 56 66 58 67 C57.125 74.75 57.125 74.75 56 77 C52.7 77 49.4 77 46 77 C46.495 81.455 46.495 81.455 47 86 C44 85 44 85 42.3125 82.0625 C41 79 41 79 41 77 C36.71 77 32.42 77 28 77 C27.34 75.68 26.68 74.36 26 73 C22.94091587 72.18415432 22.94091587 72.18415432 20 72 C19.7525 72.825 19.505 73.65 19.25 74.5 C17.81295189 78.52373471 15.97645485 82.21979024 14 86 C12.515 85.505 12.515 85.505 11 85 C12.485 79.06 12.485 79.06 14 73 C12.2365625 73.495 12.2365625 73.495 10.4375 74 C6.53562468 74.96163239 3.03486051 75.39557456 -1 75 C-3 73.75 -3 73.75 -4 72 C-3.6875 69.8125 -3.6875 69.8125 -3 68 C-0.28044639 67.0209607 1.27874643 67.04372493 4.1875 67.5 C8.64966804 68.08520237 12.57555341 67.65212932 17 67 C17.226875 65.80375 17.45375 64.6075 17.6875 63.375 C18.31951679 60.25867106 19.12494525 57.73604498 20.4921875 54.84765625 C22.93472179 49.5433467 24.71908547 45.36798406 22.90625 39.6484375 C19.57767188 31.05959013 19.57767188 31.05959013 13 25 C10.75432661 24.19765092 10.75432661 24.19765092 8.4375 23.625 C5.39343855 22.6486974 4.17576746 22.18642003 1.9375 19.8125 C0.66098606 15.98295818 0.73537274 13.03556578 1 9 C1.33 8.34 1.66 7.68 2 7 C1.484375 6.401875 0.96875 5.80375 0.4375 5.1875 C-0.036875 4.465625 -0.51125 3.74375 -1 3 C-0.67 2.01 -0.34 1.02 0 0 Z M5.1875 10.1875 C3.75333578 11.98826695 3.75333578 11.98826695 4.125 14.5 C5.06950902 17.1985972 5.63954268 18.3982611 8 20 C10.54230847 20.41679297 10.54230847 20.41679297 13 20 C13.66 19.34 14.32 18.68 15 18 C14.91256309 14.47105052 14.91256309 14.47105052 14 11 C10.75793839 8.83862559 8.66801689 7.90716135 5.1875 10.1875 Z M44.625 11.1875 C42.71663782 13.86823459 42.71663782 13.86823459 43.25 16.8125 C43.62125 17.8953125 43.62125 17.8953125 44 19 C46.80045046 19.85650653 46.80045046 19.85650653 50 20 C52.5 18.5 52.5 18.5 54 16 C54.50059916 13.41482413 54.50059916 13.41482413 54 11 C52.17899853 8.80079504 52.17899853 8.80079504 49.625 8.5625 C46.79541229 8.7879872 46.79541229 8.7879872 44.625 11.1875 Z M28 41 C27.67 42.32 27.34 43.64 27 45 C27.99 45.33 28.98 45.66 30 46 C30.66 45.01 31.32 44.02 32 43 C30.68 42.34 29.36 41.68 28 41 Z M29 54 C28.16180842 55.62249941 27.3295884 57.24808497 26.5 58.875 C26.0359375 59.77992188 25.571875 60.68484375 25.09375 61.6171875 C23.86094411 63.86596859 23.86094411 63.86596859 24 66 C27.63 66 31.26 66 35 66 C33.35 62.04 31.7 58.08 30 54 C29.67 54 29.34 54 29 54 Z " fill="#000000" transform="translate(909,589)"/>
<path d="M0 0 C4.95 0 9.9 0 15 0 C15.83402344 1.99417969 16.66804687 3.98835937 17.52734375 6.04296875 C18.36585756 8.04637604 19.20469331 10.04964818 20.04360962 12.05288696 C20.63797682 13.47223771 21.23219555 14.89165065 21.82626343 16.31112671 C25.97110866 26.21234663 30.1507805 36.09677594 34.45874023 45.9284668 C37 51.7841512 37 51.7841512 37 54 C32.38 54 27.76 54 23 54 C21.68 51.03 20.36 48.06 19 45 C11.08 45 3.16 45 -5 45 C-6.32 47.97 -7.64 50.94 -9 54 C-13.62 54 -18.24 54 -23 54 C-15.53782886 35.90886726 -7.81786704 17.93943158 0 0 Z M7 15 C3.73450272 21.18111986 1.31012271 27.39964941 -1 34 C4.28 34 9.56 34 15 34 C14.04637378 31.39402144 13.08732872 28.79026349 12.125 26.1875 C11.85558594 25.44951172 11.58617187 24.71152344 11.30859375 23.95117188 C11.04433594 23.23896484 10.78007813 22.52675781 10.5078125 21.79296875 C10.26691895 21.1383667 10.02602539 20.48376465 9.77783203 19.80932617 C8.94473832 17.72104063 8.94473832 17.72104063 7 15 Z " fill="#000000" transform="translate(599,618)"/>
<path d="M0 0 C3 0 3 0 5.15429688 1.60449219 C7.53231762 4.6908863 7.515724 6.4566053 7.53125 10.328125 C7.53906494 11.59148682 7.54687988 12.85484863 7.55493164 14.15649414 C7.5384886 15.52101988 7.52013594 16.88552376 7.5 18.25 C7.49418411 19.28494095 7.49418411 19.28494095 7.48825073 20.34078979 C7.40705012 32.68060535 5.78877166 44.43267881 3.44873047 56.546875 C0.51719575 72.57302347 2.971256 87.04407738 9 102 C9.3815625 102.95648437 9.763125 103.91296875 10.15625 104.8984375 C10.4346875 105.59195313 10.713125 106.28546875 11 107 C2.15878237 105.31409154 -6.10803045 96.19407287 -11 89 C-11.99 89.495 -11.99 89.495 -13 90 C-18.41816936 80.09426288 -20.3172803 72.26345071 -20 61 C-21.485 65.95 -21.485 65.95 -23 71 C-25 69 -25 69 -25.5 65.0625 C-25.17567509 54.83004922 -17.18067823 46.16623159 -11.31542969 38.27734375 C-6.58303897 31.80433873 -2.96135873 25.15563625 -1.8125 17.125 C-1.66683594 16.12210937 -1.52117187 15.11921875 -1.37109375 14.0859375 C-0.80739357 9.39832548 -0.35218203 4.70811772 0 0 Z M3 6 C2.34 13.26 1.68 20.52 1 28 C4.30171338 23.04742993 4.11722879 18.54348007 4.0625 12.6875 C4.05347656 11.43324219 4.04445313 10.17898438 4.03515625 8.88671875 C4.02355469 7.93410156 4.01195312 6.98148437 4 6 C3.67 6 3.34 6 3 6 Z M0 28 C1 31 1 31 1 31 Z M-1 31 C0 34 0 34 0 34 Z M-2 34 C-1 37 -1 37 -1 37 Z M-3 37 C-2 39 -2 39 -2 39 Z M-4 39 C-3 41 -3 41 -3 41 Z M-5 42 C-4 44 -4 44 -4 44 Z M-6 44 C-5 46 -5 46 -5 46 Z M-7 46 C-6 48 -6 48 -6 48 Z M-8 48 C-9.14973839 50.581658 -10.29490359 53.16518307 -11.4375 55.75 C-11.76298828 56.47960937 -12.08847656 57.20921875 -12.42382812 57.9609375 C-12.73642578 58.66992188 -13.04902344 59.37890625 -13.37109375 60.109375 C-13.65911865 60.75874023 -13.94714355 61.40810547 -14.24389648 62.07714844 C-15.81699717 66.07771061 -16.16042884 69.64401329 -16.1875 73.9375 C-16.20167969 74.95714844 -16.21585937 75.97679687 -16.23046875 77.02734375 C-15.99444914 80.07159667 -15.28252995 82.24737643 -14 85 C-12.94551934 81.83655803 -13.0917291 80.74644099 -13.625 77.5625 C-14.61412543 68.75029165 -11.66005703 60.59945878 -7.671875 52.83984375 C-6.71597891 50.8146264 -6.71597891 50.8146264 -8 48 Z M-13 85 C-12 87 -12 87 -12 87 Z " fill="#000000" transform="translate(406,491)"/>
<path d="M0 0 C9 0 9 0 11.609375 2.2109375 C12.31578125 3.25507812 13.0221875 4.29921875 13.75 5.375 C14.14993164 5.94500732 14.54986328 6.51501465 14.96191406 7.10229492 C15.84440961 8.36230989 16.71463088 9.63098564 17.57421875 10.90673828 C19.66309704 13.97352638 21.85545703 16.96241082 24.04003906 19.96142578 C26.13724757 22.84493777 28.21194799 25.7442562 30.28417969 28.64575195 C32.81937366 32.12424875 35.41740955 35.55654607 38 39 C38.33 26.13 38.66 13.26 39 0 C41.64 0 44.28 0 47 0 C47 17.82 47 35.64 47 54 C38 54 38 54 35.42578125 51.82421875 C34.72839844 50.78910156 34.03101563 49.75398437 33.3125 48.6875 C32.48346926 47.50232683 31.6540151 46.31744976 30.82421875 45.1328125 C30.38126465 44.47829102 29.93831055 43.82376953 29.48193359 43.14941406 C27.24021864 39.8980041 24.86550662 36.7486632 22.50463867 33.58325195 C20.69518272 31.15662087 18.89401685 28.72436985 17.1015625 26.28515625 C16.59963379 25.60332275 16.09770508 24.92148926 15.58056641 24.21899414 C13.65936002 21.52176757 11.83689245 18.75533868 10 16 C9.67 28.54 9.34 41.08 9 54 C6.03 54 3.06 54 0 54 C0 36.18 0 18.36 0 0 Z " fill="#000000" transform="translate(1077,619)"/>
<path d="M0 0 C13.2 0 26.4 0 40 0 C40 3.3 40 6.6 40 10 C31.42 10 22.84 10 14 10 C14 14.29 14 18.58 14 23 C21.92 23 29.84 23 38 23 C38 26.3 38 29.6 38 33 C30.08 33 22.16 33 14 33 C14 39.93 14 46.86 14 54 C9.38 54 4.76 54 0 54 C0 36.18 0 18.36 0 0 Z " fill="#000000" transform="translate(541,618)"/>
<path d="M0 0 C6.73225437 7.04538248 9.0795566 14.36144366 8.96484375 23.93359375 C8.25649155 31.28648909 4.28524567 38.04492847 -1.3125 42.8125 C-9.59933952 47.87376591 -17.18852836 50.11177149 -26.83984375 48.3515625 C-34.51845505 46.34021594 -40.53757857 42.7082353 -45.1875 36.1875 C-48.7689841 29.83795362 -50.03861545 22.23661872 -48.75 15.0625 C-46.33243988 6.60103958 -41.08474725 0.25764757 -33.578125 -4.22265625 C-22.37110426 -9.37118074 -9.83676256 -6.49597528 0 0 Z M-33.625 5 C-38.17406071 9.76064493 -40.50609658 14.16354582 -40.8125 20.8125 C-40.52984882 26.75729256 -38.74323112 31.22048815 -34.6640625 35.5703125 C-29.38602419 40.34129036 -24.80291273 42.33110869 -17.6484375 42.1171875 C-11.79725671 41.35399001 -7.68770893 38.67322206 -3.9375 34.1875 C-0.35912366 28.89346378 1.13753863 23.57594806 0.375 17.19921875 C-1.14561285 10.93619457 -3.98335335 6.48777355 -9.3125 2.8125 C-18.23563407 -1.33779492 -25.43545807 -0.40818807 -33.625 5 Z " fill="#000000" transform="translate(1060.3125,625.1875)"/>
<path d="M0 0 C0.66 0 1.32 0 2 0 C2.63529814 2.6645514 3.25810738 5.33117377 3.875 8 C4.04902344 8.72445313 4.22304688 9.44890625 4.40234375 10.1953125 C7.95995924 25.74340985 8.48956459 41.50864292 9.02905273 57.38110352 C9.50895614 71.08141091 10.26284904 84.044232 16.875 96.375 C17.20113281 97.02082031 17.52726562 97.66664063 17.86328125 98.33203125 C19.60593675 101.70206931 21.51334549 104.79092566 23.7578125 107.8515625 C26 111 26 111 26 113 C15.08395935 110.44994132 7.56287596 105.11788874 1 96 C-4.01204267 87.22502187 -5.39046023 77.85412108 -5.375 67.875 C-5.37556396 66.93358154 -5.37612793 65.99216309 -5.37670898 65.0222168 C-5.23927832 55.93001443 -3.74930189 47.22814537 -1.97265625 38.33203125 C-0.17266708 29.0131863 0.14539511 19.78167214 0.0625 10.3125 C0.05798828 9.31283203 0.05347656 8.31316406 0.04882812 7.28320312 C0.03721185 4.85540203 0.02088168 2.427736 0 0 Z " fill="#000000" transform="translate(414,495)"/>
<path d="M0 0 C4.62 0 9.24 0 14 0 C15.28197266 2.25650391 15.28197266 2.25650391 16.58984375 4.55859375 C17.70564448 6.51827739 18.8215345 8.47791019 19.9375 10.4375 C20.50146484 11.43072266 21.06542969 12.42394531 21.64648438 13.44726562 C22.18466797 14.39150391 22.72285156 15.33574219 23.27734375 16.30859375 C23.77484131 17.18314209 24.27233887 18.05769043 24.78491211 18.95874023 C25.84060192 20.92257517 25.84060192 20.92257517 27 22 C30.96 14.74 34.92 7.48 39 0 C43.62 0 48.24 0 53 0 C52.2392796 1.54105822 51.47774808 3.08171919 50.71313477 4.62084961 C50.01629879 6.02497161 49.32289513 7.43080115 48.63256836 8.83813477 C46.56238288 13.01849845 44.39241463 17.10314696 42.0546875 21.140625 C35.68673942 32.31090353 32.27017914 41.04992284 33 54 C28.71 54 24.42 54 20 54 C20.04833984 52.36417969 20.04833984 52.36417969 20.09765625 50.6953125 C20.13235744 37.78357809 16.38592751 29.0254006 10 18 C9.14268955 16.46268648 8.28850412 14.92362594 7.4375 13.3828125 C5.89391046 10.59814289 4.33426031 7.82423177 2.75 5.0625 C1.79721506 3.39512635 0.85882874 1.71765748 0 0 Z " fill="#000000" transform="translate(766,618)"/>
<path d="M0 0 C1.7578125 1.0703125 1.7578125 1.0703125 2.7578125 3.0703125 C1.82334715 5.10175891 0.82556474 7.10564837 -0.2421875 9.0703125 C-0.77585937 8.86535156 -1.30953125 8.66039062 -1.859375 8.44921875 C-8.5488026 6.03037728 -15.19892234 4.32767196 -22.3046875 5.6328125 C-24.51305931 6.99753891 -24.51305931 6.99753891 -25.3046875 9.9453125 C-25.54263275 13.06695445 -25.54263275 13.06695445 -23.76171875 15.08203125 C-19.82909854 18.18544782 -15.35920791 19.24852503 -10.6171875 20.69335938 C-4.76678864 22.59008763 -0.22665085 24.96419595 3.1953125 30.3203125 C4.23132878 35.38528099 3.54354539 40.10598027 1.6328125 44.8828125 C-2.58016466 49.79795252 -7.8675407 51.7210393 -14.19921875 52.2265625 C-23.57763095 52.62075145 -30.98614982 49.90669063 -38.2421875 44.0703125 C-37.62941138 41.10856127 -36.98846228 39.68972467 -35.2421875 37.0703125 C-32.90892148 37.94528726 -30.66314011 38.82078856 -28.515625 40.09375 C-22.9155371 43.34318372 -17.65897357 44.23154056 -11.2421875 43.0703125 C-7.87913259 41.12892077 -7.87913259 41.12892077 -6.2421875 38.0703125 C-5.99065491 35.41126781 -5.99065491 35.41126781 -7.2421875 33.0703125 C-11.28743918 29.22013641 -16.75961727 28.06272328 -21.95507812 26.40820312 C-27.15452165 24.67505528 -31.41613698 22.87025663 -34.53125 18.09375 C-36.27438388 13.13252279 -35.88687217 8.49399114 -33.7421875 3.7578125 C-24.91758685 -5.72863319 -11.26004949 -5.01685373 0 0 Z " fill="#000000" transform="translate(892.2421875,621.9296875)"/>
<path d="M0 0 C2.51406437 2.51406437 5.01787299 5.01924783 7.4375 7.625 C15.250958 14.86674156 25.61604687 14.64901265 35.71875 14.5 C43.29132509 14.11495381 50.53168234 12.25782821 57.875 10.5 C88.51089455 3.22325724 88.51089455 3.22325724 102.0625 9 C106.95856015 12.13986466 110.1076849 16.41721968 111.515625 22.0703125 C111.8125 24 111.8125 24 112 27 C111.54109375 26.59007812 111.0821875 26.18015625 110.609375 25.7578125 C109.99578125 25.21898437 109.3821875 24.68015625 108.75 24.125 C108.14671875 23.59132813 107.5434375 23.05765625 106.921875 22.5078125 C101.26023162 18.06595407 95.97267051 18.40434473 89 19 C84.55390212 19.69893828 80.14348626 20.56772113 75.73852539 21.48876953 C53.25280932 26.16437417 28.98948732 26.54880668 9.1015625 13.78125 C5.02324665 10.71733758 2.25493357 6.51984473 0 2 C0 1.34 0 0.68 0 0 Z " fill="#000000" transform="translate(232,432)"/>
<path d="M0 0 C4.62 0 9.24 0 14 0 C14 14.19 14 28.38 14 43 C21.59 43 29.18 43 37 43 C37 46.63 37 50.26 37 54 C24.79 54 12.58 54 0 54 C0 36.18 0 18.36 0 0 Z " fill="#000000" transform="translate(732,618)"/>
<path d="M0 0 C3.125 2.0625 3.125 2.0625 5 4 C5 4.66 5 5.32 5 6 C3.86304688 6.01417969 2.72609375 6.02835937 1.5546875 6.04296875 C-8.85911217 6.30722657 -17.34782202 7.90368649 -27 12 C-63.81770082 27.11740681 -63.81770082 27.11740681 -76.15625 23.33984375 C-82.26021127 20.24770548 -86.92701119 13.97525601 -90 8 C-90 7.34 -90 6.68 -90 6 C-87.22219947 7.09428506 -84.53726684 8.22763023 -81.85546875 9.546875 C-77.68667353 11.3274174 -73.86530548 11.49928877 -69.375 11.4375 C-68.58303223 11.42847656 -67.79106445 11.41945313 -66.97509766 11.41015625 C-55.72153838 11.08218367 -46.4362894 7.0374305 -36.64208984 1.81835938 C-25.25270781 -4.20875179 -11.95711157 -5.35696681 0 0 Z " fill="#000000" transform="translate(322,421)"/>
<path d="M0 0 C10.53332215 0.04660762 19.01558735 4.29542034 27 11 C25.92130607 10.03644756 24.83681257 9.07938583 23.75 8.125 C23.14671875 7.59132813 22.5434375 7.05765625 21.921875 6.5078125 C20.02581254 5.0202513 18.18709995 3.99677564 16 3 C16 2.34 16 1.68 16 1 C29.55915571 2.66746899 29.55915571 2.66746899 34 7 C38.07646311 13.58248551 40.14303196 19.54153445 40.09765625 27.30078125 C40.09443359 28.27724609 40.09121094 29.25371094 40.08789062 30.25976562 C40.07532227 31.77086914 40.07532227 31.77086914 40.0625 33.3125 C40.05798828 34.33923828 40.05347656 35.36597656 40.04882812 36.42382812 C40.03708184 38.94927882 40.02065565 41.47460905 40 44 C38 43 38 43 37.3671875 41.15234375 C37.20476562 40.42144531 37.04234375 39.69054687 36.875 38.9375 C36.62363281 37.83728516 36.62363281 37.83728516 36.3671875 36.71484375 C36.18542969 35.86599609 36.18542969 35.86599609 36 35 C36.23074219 36.05058594 36.46148437 37.10117187 36.69921875 38.18359375 C38.3678503 45.46694498 39.96335036 52.02715508 44.046875 58.3984375 C45 60 45 60 45 62 C36.01302608 58.9187518 32.10210052 52.31031729 28.00976562 44.20849609 C25.789914 39.35337573 24.19399267 34.26396601 22.50439453 29.20654297 C17.96863445 15.75450837 12.57233748 7.67103621 0 1 C0 0.67 0 0.34 0 0 Z M28 13 C28.33 13.99 28.66 14.98 29 16 C29 15.01 29 14.02 29 13 C28.67 13 28.34 13 28 13 Z M30 16 C31 18 31 18 31 18 Z M31 18 C32 20 32 20 32 20 Z M32 20 C33 23 33 23 33 23 Z M33 23 C34 26 34 26 34 26 Z M34 26 C35 29 35 29 35 29 Z " fill="#000000" transform="translate(417,391)"/>
<path d="M0 0 C0.62261719 0.51820313 1.24523437 1.03640625 1.88671875 1.5703125 C3.96794712 2.47129364 3.96794712 2.47129364 6.07421875 3.1328125 C8.1796875 3.82421875 8.1796875 3.82421875 9.88671875 4.5703125 C10.38171875 5.5603125 10.38171875 5.5603125 10.88671875 6.5703125 C9.63117188 6.52390625 8.375625 6.4775 7.08203125 6.4296875 C-7.99685604 6.02720195 -15.98629371 8.92274806 -28.22021484 17.55737305 C-36.71007636 23.49987384 -44.58669136 26.66168915 -55.11328125 26.5703125 C-55.77328125 26.2403125 -56.43328125 25.9103125 -57.11328125 25.5703125 C-56.9091333 19.85416989 -55.97335483 15.96008297 -52.265625 11.51953125 C-42.44772023 2.62818011 -12.17689797 -8.23797534 0 0 Z " fill="#000000" transform="translate(288.11328125,394.4296875)"/>
<path d="M0 0 C4.62 0 9.24 0 14 0 C14 17.82 14 35.64 14 54 C9.38 54 4.76 54 0 54 C0 36.18 0 18.36 0 0 Z " fill="#000000" transform="translate(709,618)"/>
<path d="M0 0 C4.87644885 3.29675416 4.87644885 3.29675416 6.8984375 5.0625 C6.8984375 5.7225 6.8984375 6.3825 6.8984375 7.0625 C6.23328125 6.794375 5.568125 6.52625 4.8828125 6.25 C1.31378739 4.82986436 -2.26402191 3.43500606 -5.8515625 2.0625 C-6.51671875 1.80210937 -7.181875 1.54171875 -7.8671875 1.2734375 C-23.37037706 -4.62970006 -41.71946007 -5.73424293 -57.1015625 1.0625 C-63.75256917 4.11932028 -69.25901932 7.66695956 -74.54296875 12.7421875 C-76.1015625 14.0625 -76.1015625 14.0625 -78.1015625 14.0625 C-77.89922415 11.83073823 -77.66353976 9.60198507 -77.4140625 7.375 C-77.28644531 6.13363281 -77.15882813 4.89226562 -77.02734375 3.61328125 C-75.64003522 -1.7076616 -72.83945263 -3.88860991 -68.234375 -6.66796875 C-67.24179687 -7.14878906 -66.24921875 -7.62960937 -65.2265625 -8.125 C-64.23914063 -8.61355469 -63.25171875 -9.10210937 -62.234375 -9.60546875 C-41.17059754 -18.56151378 -18.48233318 -11.54563886 0 0 Z " fill="#000000" transform="translate(437.1015625,457.9375)"/>
<path d="M0 0 C2.46342787 1.87733351 4.7713073 3.85013566 7 6 C6.67 6.66 6.34 7.32 6 8 C4.48986328 7.51660156 4.48986328 7.51660156 2.94921875 7.0234375 C-12.23732071 2.7127644 -25.51859604 8.50800019 -38.86279297 15.18164062 C-49.48749833 20.41210976 -61.63182123 22.25114108 -73.1875 18.75 C-76.4991359 17.44409075 -78.75722107 15.82785169 -81 13 C-79.88625 13.165 -78.7725 13.33 -77.625 13.5 C-63.59896869 15.15157135 -54.31594528 11.63913975 -42.50195312 4.29711914 C-29.92970094 -3.45716949 -13.49449612 -8.80075834 0 0 Z " fill="#000000" transform="translate(314,412)"/>
<path d="M0 0 C0.66 0 1.32 0 2 0 C1.566875 1.051875 1.566875 1.051875 1.125 2.125 C0.75375 3.07375 0.3825 4.0225 0 5 C-0.37125 5.886875 -0.7425 6.77375 -1.125 7.6875 C-3.01445939 14.84045342 -2.66715844 21.14979618 0.68359375 27.78125 C5.57683111 36.02860555 12.29109861 43.64554931 21 48 C21.08150744 50.06183633 21.1394194 52.12461349 21.1875 54.1875 C21.23970703 55.91033203 21.23970703 55.91033203 21.29296875 57.66796875 C20.97622579 61.27039199 20.08533398 63.09366839 18 66 C17.505 65.34 17.01 64.68 16.5 64 C12.09219357 58.71063229 7.21470989 53.97896109 1.9375 49.5625 C-4.76784395 43.74152228 -10.56512449 36.99385885 -12 28 C-12.61378484 17.93991676 -8.35435251 10.05194693 -2.25 2.3125 C-1.5075 1.549375 -0.765 0.78625 0 0 Z " fill="#000000" transform="translate(255,616)"/>
<path d="M0 0 C3 2 3 2 3.73828125 4.57421875 C3.92777344 5.60160156 4.11726563 6.62898437 4.3125 7.6875 C5.46098967 12.88984779 6.83855942 15.7627755 10.890625 19.20703125 C12.69794727 22.12802041 11.58929108 24.70063584 11 28 C9.87381595 43.25927088 11.55281887 55.79394006 20.4140625 68.66015625 C21.81270377 70.72366886 22.94807022 72.74512081 24 75 C16.35834481 74.61791724 11.32213205 69.59099288 6.25 64.3125 C-0.15558836 56.48702574 -1.61878372 47.72934575 -1.3125 37.875 C-1.29703125 36.86179687 -1.2815625 35.84859375 -1.265625 34.8046875 C-1.20552084 31.5350211 -1.10869347 28.26839851 -1 25 C-0.96181152 23.83114258 -0.92362305 22.66228516 -0.88427734 21.45800781 C-0.63899957 14.30293258 -0.34295794 7.15103795 0 0 Z " fill="#000000" transform="translate(431,537)"/>
<path d="M0 0 C13.35684747 10.4239453 23.47541668 28.88988616 29.4375 44.5625 C24.81278832 43.07289249 21.44458954 40.43640834 17.8125 37.3125 C17.20075928 36.78744873 16.58901855 36.26239746 15.95874023 35.72143555 C9.53532483 30.03002377 4.46982768 23.47661065 -0.5625 16.5625 C-6.58633406 8.30984733 -13.03977593 0.71195888 -23.5625 -1.4375 C-28.87906161 -2.03154438 -34.21872685 -2.24943031 -39.5625 -2.4375 C-38.5625 -4.4375 -38.5625 -4.4375 -35.4375 -5.5625 C-22.91848684 -8.37702634 -10.67096772 -7.09921919 0 0 Z " fill="#000000" transform="translate(421.5625,403.4375)"/>
<path d="M0 0 C1.98 0.66 3.96 1.32 6 2 C5.95875 3.175625 5.9175 4.35125 5.875 5.5625 C5.875 10.54982408 6.35424463 15.35424463 10 19 C12.57061311 19.64767793 12.57061311 19.64767793 15 20 C15.12117188 20.83402344 15.24234375 21.66804687 15.3671875 22.52734375 C16.48246725 30.09666638 16.48246725 30.09666638 18.125 37.5625 C19.4210494 42.98970686 19.16887104 48.45540097 19 54 C16.74609375 54.73046875 16.74609375 54.73046875 14 55 C6.07391765 49.33414923 0.8436981 38.46289068 -1.375 29.1875 C-2.84222872 20.01361537 -2.64538248 10.14101377 -1 1 C-0.67 0.67 -0.34 0.34 0 0 Z " fill="#000000" transform="translate(444,558)"/>
<path d="M0 0 C0 0.99 0 1.98 0 3 C-2.31237838 3.33417597 -4.62490604 3.66731915 -6.9375 4 C-8.22527344 4.185625 -9.51304687 4.37125 -10.83984375 4.5625 C-14 5 -14 5 -15 5 C-15.7425 5.845625 -16.485 6.69125 -17.25 7.5625 C-20 10 -20 10 -22.41796875 9.85546875 C-25.28914888 8.90420029 -26.80886837 7.74743844 -29.0625 5.75 C-38.42634437 -1.87282808 -48.56321245 -4.18305307 -60.3125 -4.0625 C-61.56643555 -4.05573242 -61.56643555 -4.05573242 -62.84570312 -4.04882812 C-64.89716649 -4.03710548 -66.94859273 -4.01917203 -69 -4 C-66.2688034 -6.93796855 -63.97171202 -7.90671465 -60.125 -9.125 C-59.09632813 -9.45757812 -58.06765625 -9.79015625 -57.0078125 -10.1328125 C-38.89974277 -15.35358066 -15.33437455 -11.1311906 0 0 Z M-21 0 C-20.67 0.66 -20.34 1.32 -20 2 C-19.34 1.67 -18.68 1.34 -18 1 C-18.99 0.67 -19.98 0.34 -21 0 Z " fill="#000000" transform="translate(451,472)"/>
<path d="M0 0 C2.97 0 5.94 0 9 0 C9 15.84 9 31.68 9 48 C16.59 48 24.18 48 32 48 C32 49.98 32 51.96 32 54 C21.44 54 10.88 54 0 54 C0 36.18 0 18.36 0 0 Z " fill="#000000" transform="translate(978,619)"/>
<path d="M0 0 C0.33 0 0.66 0 1 0 C1.27972656 1.1859375 1.55945313 2.371875 1.84765625 3.59375 C8.72099111 31.751307 23.25376495 56.78789363 47.9765625 72.9453125 C50.2937879 74.34870253 52.62081814 75.70513554 55 77 C52.06811099 78.26536072 50.92600708 77.97360271 47.85888672 76.87939453 C46.62620383 76.31062473 45.40011302 75.72742811 44.1796875 75.1328125 C43.52098663 74.81980194 42.86228577 74.50679138 42.18362427 74.18429565 C40.7871505 73.51595242 39.39363804 72.84139154 38.00292969 72.16113281 C35.91249369 71.14325645 33.80932899 70.15661948 31.703125 69.171875 C21.74336799 64.4180522 10.8107509 58.81704005 6.74414062 47.84814453 C5.11894795 41.62783689 4.10423198 35.30301868 3.13476562 28.95239258 C2.75004153 26.43777145 2.34533285 23.92698168 1.9375 21.41601562 C1.68111324 19.79706118 1.42586597 18.17792579 1.171875 16.55859375 C0.99383331 15.44888466 0.99383331 15.44888466 0.81219482 14.3167572 C0.08485764 9.49256319 -0.10313052 4.87910478 0 0 Z " fill="#000000" transform="translate(432,611)"/>
<path d="M0 0 C1.94433394 0.9397157 3.90730326 1.81755272 5.88183594 2.69140625 C9.05029709 4.24208841 11.56294141 5.52823113 14.07714844 8.00390625 C15.04878351 11.85910345 14.83469418 15.12499146 14.07714844 19.00390625 C10.59139945 16.99170657 7.44118057 14.78259576 4.26464844 12.31640625 C-10.83989451 1.26827902 -29.29758219 -6.31975793 -48.25878906 -3.5 C-55.09456514 -2.18770893 -60.95358405 -0.39606343 -67.03222656 3.015625 C-68.92285156 4.00390625 -68.92285156 4.00390625 -70.92285156 4.00390625 C-68.07764523 -2.34309249 -63.12204897 -5.71284108 -56.79785156 -8.30859375 C-37.40498846 -15.6506202 -17.63549855 -8.62285991 0 0 Z " fill="#000000" transform="translate(435.9228515625,447.99609375)"/>
<path d="M0 0 C15.95794749 0.54650505 33.37839848 3.60447507 45.5 14.8125 C51.75573844 21.71987786 53.72509058 28.26242511 53.47265625 37.55859375 C52.66742686 43.42146225 50.45239621 48.64852113 48 54 C47.34 54 46.68 54 46 54 C45.94392578 52.65808594 45.94392578 52.65808594 45.88671875 51.2890625 C45.19290026 38.52824395 43.10880583 27.6930363 33.6875 18.5 C27.57047657 13.43325795 20.15281902 10.32598445 13 7 C12.3404834 6.69078613 11.6809668 6.38157227 11.00146484 6.06298828 C7.34550239 4.35032688 3.67879265 2.66301586 0 1 C0 0.67 0 0.34 0 0 Z " fill="#000000" transform="translate(287,495)"/>
<path d="M0 0 C2.95808024 2.12249881 5.40135303 4.65379846 7.90625 7.28515625 C14.4478473 14.10949449 22.41793826 21.1210785 30.89453125 25.359375 C30.89453125 26.019375 30.89453125 26.679375 30.89453125 27.359375 C20.46674349 27.46593633 14.09902821 25.74831101 5.89453125 19.359375 C4.79824146 18.51033354 3.70188438 17.66137896 2.60546875 16.8125 C0.91363133 15.49938136 -0.77669013 14.18466058 -2.4609375 12.86181641 C-9.74752646 7.19715192 -16.08946791 4.1961576 -25.35546875 4.296875 C-26.433125 4.30589844 -27.51078125 4.31492187 -28.62109375 4.32421875 C-29.85085938 4.34162109 -29.85085938 4.34162109 -31.10546875 4.359375 C-23.23225063 -5.03769179 -10.50801379 -5.90674502 0 0 Z " fill="#000000" transform="translate(392.10546875,410.640625)"/>
<path d="M0 0 C0.99 1.485 0.99 1.485 2 3 C0.36804688 3.03867187 0.36804688 3.03867187 -1.296875 3.078125 C-16.0344527 3.57650533 -26.62842614 7.54415006 -39.3046875 14.875 C-48.70142773 20.3040175 -57.20520605 23.45895033 -68.1875 21.0625 C-70.0746875 20.5365625 -70.0746875 20.5365625 -72 20 C-72 19.34 -72 18.68 -72 18 C-70.94941406 17.76925781 -69.89882812 17.53851563 -68.81640625 17.30078125 C-58.45532632 14.93504045 -50.91109699 11.79950052 -42.21020508 5.58837891 C-29.87567549 -3.1628862 -14.49816352 -7.41695523 0 0 Z " fill="#000000" transform="translate(306,404)"/>
<path d="M0 0 C8.4279583 3.66166149 12.56880664 8.51437772 16 17 C17.88806432 23.93838885 18.28797248 30.78395318 18.4375 37.9375 C18.6797964 45.63541801 19.23286568 52.72539532 22 60 C15.60224719 59.50786517 15.60224719 59.50786517 12.90625 57.234375 C6.48747728 49.71073156 6.74016286 40.8493781 6.92773438 31.49511719 C7.12345474 21.08670819 6.24292198 12.13283183 1 3 C0.67 2.01 0.34 1.02 0 0 Z " fill="#000000" transform="translate(451,396)"/>
<path d="M0 0 C5.37732378 5.31950309 9.54330883 10.61911778 10.125 18.375 C9.70089844 17.99988281 9.27679688 17.62476563 8.83984375 17.23828125 C0.78089107 10.20662364 -5.56808251 4.86003008 -16.75 5.4375 C-25.93523108 6.69131222 -32.27735093 10.96042324 -38.11328125 18.015625 C-40.60626446 21.35434309 -42.77954426 24.77343546 -44.875 28.375 C-46.81931712 23.03126392 -44.02967805 18.30921274 -41.875 13.375 C-39.9375 10.0625 -39.9375 10.0625 -37.875 7.375 C-37.153125 6.364375 -36.43125 5.35375 -35.6875 4.3125 C-31.33586926 -0.77330157 -24.56115578 -4.14664168 -18.03515625 -5.45703125 C-10.98735251 -6.00505216 -5.42305665 -4.58388149 0 0 Z " fill="#000000" transform="translate(403.875,473.625)"/>
<path d="M0 0 C-3.87621764 1.29207255 -5.53246098 0.39998434 -9.375 -0.875 C-24.89408332 -5.97667567 -41.65986958 -5.80396177 -56.5 1.5 C-65.96745615 7.01582228 -73.60759403 14.47341612 -79 24 C-79.66 24 -80.32 24 -81 24 C-82.48856867 12.37262471 -82.48856867 12.37262471 -79.3359375 7.34765625 C-57.41178593 -13.51328396 -25.6573202 -13.26352994 0 0 Z " fill="#000000" transform="translate(440,464)"/>
<path d="M0 0 C2.91197634 2.38315045 4.6908409 5.16167896 6.65625 8.35546875 C3.57541631 9.33885986 1.74365495 9.3126145 -1.34375 8.41796875 C-11.08510205 6.04546303 -20.53045572 7.45426445 -30.15625 9.66796875 C-32.25515843 10.12653055 -34.35411673 10.58486415 -36.453125 11.04296875 C-37.45923828 11.26726562 -38.46535156 11.4915625 -39.50195312 11.72265625 C-43.29743028 12.56783467 -47.0982398 13.38141887 -50.90625 14.16796875 C-52.00066406 14.40128906 -53.09507812 14.63460938 -54.22265625 14.875 C-57.63808396 15.40077923 -60.89337596 15.43813849 -64.34375 15.35546875 C-63.34375 13.35546875 -63.34375 13.35546875 -60.84375 12.41796875 C-59.68875 12.06734375 -58.53375 11.71671875 -57.34375 11.35546875 C-48.65166917 8.62226176 -40.25767932 5.18792905 -31.82617188 1.74609375 C-30.26672852 1.111875 -30.26672852 1.111875 -28.67578125 0.46484375 C-27.74483643 0.08295898 -26.8138916 -0.29892578 -25.85473633 -0.69238281 C-17.74918726 -3.76595028 -7.67397168 -4.50358084 0 0 Z " fill="#000000" transform="translate(329.34375,430.64453125)"/>
<path d="M0 0 C1.10537109 -0.01224609 2.21074219 -0.02449219 3.34960938 -0.03710938 C4.93032227 -0.04000977 4.93032227 -0.04000977 6.54296875 -0.04296875 C7.50614014 -0.04707764 8.46931152 -0.05118652 9.46166992 -0.05541992 C11.8125 0.1875 11.8125 0.1875 13.8125 2.1875 C13.24442627 2.28248779 12.67635254 2.37747559 12.09106445 2.4753418 C-10.36540869 5.53572147 -10.36540869 5.53572147 -28.1875 18.1875 C-30.18164086 22.08780492 -31.77251405 26.04458439 -33.1875 30.1875 C-36.045969 27.329031 -35.90682305 24.78259064 -36.20703125 20.8515625 C-36.17091283 15.92501049 -34.91625222 12.24798575 -31.7421875 8.46484375 C-23.04740106 0.23512728 -11.3091283 0.00666419 0 0 Z " fill="#000000" transform="translate(262.1875,389.8125)"/>
<path d="M0 0 C1.45599609 -0.07347656 1.45599609 -0.07347656 2.94140625 -0.1484375 C11.98792944 1.20601402 19.43662599 7.2415027 26.5625 12.625 C27.42359375 13.26179688 28.2846875 13.89859375 29.171875 14.5546875 C33.74270635 17.96467279 33.74270635 17.96467279 35.4375 19.375 C35.4375 19.705 35.4375 20.035 35.4375 20.375 C27.26047876 20.375 21.35834478 17.12159833 14.3046875 13.3828125 C4.96020746 8.44352041 -2.20174933 6.5789379 -12.5625 9.375 C-13.89542749 9.70995252 -15.22863701 10.04379249 -16.5625 10.375 C-15.00239422 6.16271439 -12.0779607 4.02953155 -8.5625 1.375 C-5.51674807 0.35974936 -3.1969267 0.1083704 0 0 Z " fill="#000000" transform="translate(369.5625,415.625)"/>
<path d="M0 0 C6.67556223 5.22147937 11.2084869 12.72144497 15.91015625 19.66796875 C11.64617042 19.66796875 9.43936104 17.1945832 6.22265625 14.66796875 C0.80175961 10.54190423 -4.66202429 7.05149951 -10.77734375 4.04296875 C-11.78317505 3.54796875 -11.78317505 3.54796875 -12.80932617 3.04296875 C-17.37932258 0.8641751 -21.14312612 -0.46799123 -26.19921875 -0.4296875 C-27.33037109 -0.42485352 -27.33037109 -0.42485352 -28.484375 -0.41992188 C-29.26167969 -0.41154297 -30.03898437 -0.40316406 -30.83984375 -0.39453125 C-31.63261719 -0.39001953 -32.42539062 -0.38550781 -33.2421875 -0.38085938 C-35.19143883 -0.3691169 -37.14065113 -0.35118271 -39.08984375 -0.33203125 C-30.250618 -10.1183169 -10.05755056 -6.41051354 0 0 Z " fill="#000000" transform="translate(410.08984375,407.33203125)"/>
<path d="M0 0 C5.06897228 1.34178678 8.3407563 4.59036805 11 9 C13.25195764 18.79869663 12.2219172 28.35271405 9.7265625 37.97265625 C9.06226351 40.7405687 8.68208312 43.35667686 8.4375 46.1875 C8 50 8 50 6 52 C1.07488375 43.38104656 2.6224388 33.47073326 4 24 C4.52116836 16.47747552 4.47693598 10.44815449 0.875 3.70703125 C0 2 0 2 0 0 Z " fill="#000000" transform="translate(472,406)"/>
<path d="M0 0 C2.22541641 1.3751202 4.15841939 2.91318953 6.1640625 4.58984375 C8.77757765 6.59724581 10.72569367 7 14 7 C17.78059045 6.14703322 17.78059045 6.14703322 21 5 C20.55396127 10.05510556 18.35299176 12.40166738 15 16 C11.43427737 17.78286132 7.73515687 17.12238704 4 16 C1.95502558 14.38426773 0.3616495 12.69755078 -1.296875 10.69140625 C-3.43839249 8.56462397 -5.08770932 7.79115092 -8 7 C-10.91732164 7.18107769 -10.91732164 7.18107769 -13.8125 7.875 C-14.78832031 8.07867187 -15.76414062 8.28234375 -16.76953125 8.4921875 C-17.50558594 8.65976562 -18.24164063 8.82734375 -19 9 C-15.82489926 1.53292892 -7.80343693 -1.99527459 0 0 Z " fill="#000000" transform="translate(469,482)"/>
<path d="M0 0 C11.41929045 0.1935473 20.90030846 6.2770383 29 14 C28.01267601 15.98346337 27.01943332 17.96249977 26 19.9296875 C23.96918416 23.88025894 22.28146789 27.72844035 21 32 C17.72296191 30.36148095 17.374362 26.73812958 16.25 23.4375 C12.97951036 14.32993445 8.95255384 8.19174731 1.3203125 2.12890625 C0.88460938 1.75636719 0.44890625 1.38382812 0 1 C0 0.67 0 0.34 0 0 Z " fill="#000000" transform="translate(399,469)"/>
<path d="M0 0 C1.13824219 0.60199219 2.27648437 1.20398438 3.44921875 1.82421875 C6.64763884 3.52270499 9.82713085 5.25418637 13 7 C13 7.33 13 7.66 13 8 C8.19091344 8.18859163 3.86501642 7.8530828 -0.875 7 C-6.42912784 6.09055217 -11.82319503 5.77745941 -17.4375 5.75 C-18.57324463 5.73646484 -18.57324463 5.73646484 -19.73193359 5.72265625 C-24.20289195 5.74645377 -27.78875091 6.31816994 -32 8 C-31.41909101 4.07886431 -29.74317959 1.81536852 -27 -1 C-18.00636026 -6.32276638 -8.81745602 -4.81835786 0 0 Z " fill="#000000" transform="translate(381,428)"/>
<path d="M0 0 C-1 2 -1 2 -3.20703125 3.07421875 C-6.07165248 4.02375054 -8.69561348 4.44899977 -11.6875 4.8125 C-22.00808599 6.4799631 -28.58768172 11.05499048 -36.06640625 18.20703125 C-38 20 -38 20 -39 20 C-38.71367048 12.75586302 -37.96004999 7.81491727 -32.5078125 2.5625 C-23.52980972 -5.29883577 -10.83554741 -1.95738921 0 0 Z " fill="#000000" transform="translate(384,436)"/>
<path d="M0 0 C0.66 0 1.32 0 2 0 C-0.54668815 10.52631104 -5.35297855 23.89485707 -14 31 C-16.62072981 32.58385304 -19.17572521 33.78264018 -22 35 C-23.09915544 26.93952675 -18.96252996 20.0743419 -14.32421875 13.6953125 C-10.32820066 8.97358077 -5.7232091 4.97440766 -1 1 C-0.67 0.67 -0.34 0.34 0 0 Z " fill="#000000" transform="translate(374,499)"/>
<path d="M0 0 C-1.39534063 3.36607947 -2.83207035 4.79793192 -5.875 6.75 C-11.95365032 11.11077088 -13.9003054 17.00101799 -16 24 C-16.66 24 -17.32 24 -18 24 C-18.66 22.35 -19.32 20.7 -20 19 C-21.485 25.435 -21.485 25.435 -23 32 C-26.52272952 26.71590571 -25.91589971 19.19054269 -25 13 C-22.97860476 7.63359127 -19.33087436 3.16153664 -14.14453125 0.57421875 C-9.53096284 -0.66110831 -4.7275695 -0.27946224 0 0 Z " fill="#000000" transform="translate(223,422)"/>
<path d="M0 0 C16.91887207 4.71509549 30.40900613 17.86959246 43.57421875 29.00390625 C46.02838042 31.09140057 46.02838042 31.09140057 49 33 C48.505 33.99 48.505 33.99 48 35 C34.01765096 29.53943765 22.96326376 22.32127084 12 12 C10.90567393 11.00427692 9.80921233 10.01089718 8.7109375 9.01953125 C7.59892236 8.01306057 6.48694269 7.00655072 5.375 6 C4.57449219 5.27816528 4.57449219 5.27816528 3.7578125 4.54174805 C2.48622664 3.38163509 1.24034339 2.19345756 0 1 C0 0.67 0 0.34 0 0 Z " fill="#000000" transform="translate(392,409)"/>
<path d="M0 0 C3.78834395 1.26278132 4.22011278 2.52112952 6 6 C7.48094159 10.82461517 7.26312331 15.74649502 7.3125 20.75 C7.34150391 21.71421875 7.37050781 22.6784375 7.40039062 23.671875 C7.46389701 30.86275151 6.24171288 36.15432611 1.55200195 41.71777344 C0 43 0 43 -3 43 C-3.3587429 37.23354005 -2.90463225 32.17443448 -1.5 26.5625 C0.57653012 17.73968423 0.2594622 9.01390888 0 0 Z " fill="#000000" transform="translate(484,416)"/>
<path d="M0 0 C2.7594863 2.7594863 3.44827181 5.98144074 4.5625 9.625 C4.78357422 10.31207031 5.00464844 10.99914062 5.23242188 11.70703125 C9.22187866 24.55525161 8.14998714 37.91913689 7.5625 51.1875 C7.52334473 52.10877686 7.48418945 53.03005371 7.44384766 53.97924805 C7.40179199 54.84590088 7.35973633 55.71255371 7.31640625 56.60546875 C7.27974854 57.38043701 7.24309082 58.15540527 7.20532227 58.95385742 C7 61 7 61 6 64 C3.01443411 56.60098888 1.92178955 49.92872484 1.71875 41.9140625 C1.70065781 41.25872528 1.68256561 40.60338806 1.66392517 39.92819214 C1.62572957 38.53965517 1.58917443 37.15107222 1.5541687 35.76245117 C1.46331156 32.17730509 1.35938352 28.59255454 1.25390625 25.0078125 C1.23344742 24.30952332 1.21298859 23.61123413 1.19190979 22.89178467 C0.95984863 15.24945622 0.53982268 7.62643109 0 0 Z " fill="#000000" transform="translate(422,519)"/>
<path d="M0 0 C-0.90943038 10.48118508 -6.25596848 17.98565944 -14.125 24.75 C-14.77855469 25.28238281 -15.43210937 25.81476563 -16.10546875 26.36328125 C-18.10000907 28.08639959 -19.74788562 29.91722123 -21.4375 31.9375 C-22.283125 32.948125 -23.12875 33.95875 -24 35 C-24.33 35 -24.66 35 -25 35 C-23.59960125 21.52543157 -15.75401643 10.90259386 -6 2 C-3.74298162 0.64179425 -2.61601263 0 0 0 Z " fill="#000000" transform="translate(380,482)"/>
<path d="M0 0 C5.63491318 1.36603956 8.74895222 5.48064222 12 10 C15.84195626 16.6189492 15.89475914 24.30080698 14.48828125 31.6875 C13.81410416 36.26111739 13.8947039 40.75960544 13.9375 45.375 C13.94201172 46.30183594 13.94652344 47.22867188 13.95117188 48.18359375 C13.96288426 50.45579709 13.97928628 52.72786388 14 55 C9.87534544 51.29514863 9.19328375 46.74679981 8.81738281 41.40478516 C8.72314381 38.54062886 8.67101304 35.67781458 8.625 32.8125 C8.28202262 21.41099083 7.07879399 11.35412063 0 2 C0 1.34 0 0.68 0 0 Z " fill="#000000" transform="translate(461,400)"/>
<path d="M0 0 C6.79258863 6.27840861 10.43288681 15.04607546 12.9609375 23.8125 C12.6309375 24.4725 12.3009375 25.1325 11.9609375 25.8125 C11.46464844 25.11125 10.96835937 24.41 10.45703125 23.6875 C2.27116846 12.25525139 -5.37207554 1.64297117 -20.0390625 -1.1875 C-23.7010163 -1.61041586 -27.36163137 -1.9348013 -31.0390625 -2.1875 C-30.0390625 -4.1875 -30.0390625 -4.1875 -27.95703125 -4.890625 C-17.82909215 -6.91911066 -8.48038794 -6.36794473 0 0 Z " fill="#000000" transform="translate(427.0390625,398.1875)"/>
<path d="M0 0 C-0.268125 0.515625 -0.53625 1.03125 -0.8125 1.5625 C-1.204375 2.366875 -1.59625 3.17125 -2 4 C-2.53625 5.0725 -3.0725 6.145 -3.625 7.25 C-5.84821487 13.31331329 -5.2632216 18.68389198 -4 25 C-14.19031142 24.80968858 -14.19031142 24.80968858 -17.1875 21.8125 C-18.13570674 18.5302459 -18.56529786 16.39178714 -18 13 C-16 10.5625 -16 10.5625 -13 8 C-12.33742187 7.39542969 -11.67484375 6.79085938 -10.9921875 6.16796875 C-4.18355397 0 -4.18355397 0 0 0 Z " fill="#000000" transform="translate(231,396)"/>
<path d="M0 0 C0.99 0.33 1.98 0.66 3 1 C2.401875 2.155 1.80375 3.31 1.1875 4.5 C-0.2513334 7.3524241 -1.45915361 10.16847041 -2.5 13.1875 C-3.98751703 17.31678224 -5.9450886 20.9725443 -10 23 C-14.72722742 23.56652431 -18.00700352 23.64848749 -22.0625 21 C-22.701875 20.34 -23.34125 19.68 -24 19 C-23.67 18.34 -23.34 17.68 -23 17 C-22.0925 17.0825 -21.185 17.165 -20.25 17.25 C-17.01917412 17.29400325 -17.01917412 17.29400325 -15 15.5 C-13.85550418 14.06938022 -12.73048852 12.62141936 -11.66796875 11.12890625 C-8.22865664 6.32838881 -5.1355556 3.00381554 0 0 Z " fill="#000000" transform="translate(463,534)"/>
<path d="M0 0 C-2.01053021 4.05356969 -4.13818854 8.03233083 -6.3125 12 C-6.69083984 12.7115625 -7.06917969 13.423125 -7.45898438 14.15625 C-10.34432362 19.38989411 -13.11355907 23.03785302 -19 25 C-21.33299825 25.03954234 -23.66708189 25.04401732 -26 25 C-25.2575 24.443125 -24.515 23.88625 -23.75 23.3125 C-17.98566085 18.46521481 -16.1432989 13.98498227 -14.125 6.83984375 C-11.2008501 -0.54160408 -7.21847564 -1.20307927 0 0 Z " fill="#000000" transform="translate(477,534)"/>
<path d="M0 0 C0.33 0 0.66 0 1 0 C6.85365854 32.43902439 6.85365854 32.43902439 3 44 C2.34 44 1.68 44 1 44 C0.87882812 43.10539063 0.75765625 42.21078125 0.6328125 41.2890625 C-0.50119392 33.06936457 -0.50119392 33.06936457 -2.125 24.9375 C-3.88754302 16.39269142 -4.33072138 7.75920915 0 0 Z " fill="#000000" transform="translate(463,565)"/>
<path d="M0 0 C1.32 0.66 2.64 1.32 4 2 C3.73703125 2.51433594 3.4740625 3.02867187 3.203125 3.55859375 C2.26074264 5.47089561 1.3636565 7.40553191 0.484375 9.34765625 C-0.09331954 10.58613838 -0.67145547 11.82441471 -1.25 13.0625 C-1.52457031 13.68705078 -1.79914063 14.31160156 -2.08203125 14.95507812 C-3.63364913 18.21486726 -4.89149137 19.92819282 -7.921875 21.93359375 C-10.87108123 22.95533652 -12.91443434 23.27225579 -16 23 C-15.64808594 22.57332031 -15.29617188 22.14664063 -14.93359375 21.70703125 C-10.74354151 16.40109043 -7.6562935 10.78787355 -4.61328125 4.7578125 C-3 2 -3 2 0 0 Z " fill="#000000" transform="translate(478,536)"/>
<path d="M0 0 C3.59169824 3.41905589 4.82403522 6.28741255 5.3359375 11.26953125 C5.43860515 20.58148689 4.4665124 25.94164402 -1.5625 33 C-4 35 -4 35 -7 35 C-6.00718233 33.00100837 -5.0052131 31.00989505 -3.96484375 29.03515625 C-3.62582031 28.38417969 -3.28679687 27.73320312 -2.9375 27.0625 C-2.42509766 26.08990234 -2.42509766 26.08990234 -1.90234375 25.09765625 C0.39030444 19.76799358 0.12092524 14.38171334 0.0625 8.6875 C0.05798828 7.85154297 0.05347656 7.01558594 0.04882812 6.15429688 C0.03710548 4.10283351 0.01917203 2.05140727 0 0 Z " fill="#000000" transform="translate(492,425)"/>
<path d="M0 0 C6.05009801 -0.29710303 10.41647076 0.47728676 16 2.75 C16.69480469 3.02150879 17.38960938 3.29301758 18.10546875 3.57275391 C22.87661081 5.46487427 27.48425606 7.55397203 32 10 C32 11.65 32 13.3 32 15 C26.9849641 14.41868936 23.14816723 12.09471306 18.8125 9.6875 C12.68196533 6.35392712 6.59940703 3.31871058 0 1 C0 0.67 0 0.34 0 0 Z " fill="#000000" transform="translate(418,439)"/>
<path d="M0 0 C3.75708502 1.68421053 3.75708502 1.68421053 5.25 3.625 C8.19241954 5.93690107 11.35648824 5.1791891 15 5 C13.84826645 7.46800047 12.95216435 9.04783565 11 11 C8.125 11.4375 8.125 11.4375 5 11 C1.39683978 7.68898791 0.44729476 4.8084187 0 0 Z " fill="#000000" transform="translate(435,540)"/>
<path d="M0 0 C0.66 0 1.32 0 2 0 C2.46557346 3.18141867 2.50963377 5.25343123 0.6640625 7.95703125 C-0.84258024 9.6935608 -2.37936464 11.369718 -4 13 C-4.66 12.67 -5.32 12.34 -6 12 C-5.19024636 10.18627137 -4.37711979 8.37404826 -3.5625 6.5625 C-2.88380859 5.04849609 -2.88380859 5.04849609 -2.19140625 3.50390625 C-1 1 -1 1 0 0 Z " fill="#000000" transform="translate(481,541)"/>
</svg>
