<?xml version="1.0" encoding="UTF-8"?>
<svg version="1.1" xmlns="http://www.w3.org/2000/svg" width="1350" height="1080">
<path d="M0 0 C1.17625946 -0.00287018 2.35251892 -0.00574036 3.56442261 -0.00869751 C6.04718509 -0.01073275 8.5299638 -0.00524086 11.01269531 0.00732422 C14.77185898 0.023298 18.52993329 0.00750071 22.2890625 -0.01171875 C56.02832248 -0.04370428 56.02832248 -0.04370428 66.6796875 10.3984375 C76.67886358 22.76484277 78.1062612 35.99275944 76.6796875 51.3984375 C74.63222768 61.5316285 68.95930995 70.28728759 60.6796875 76.3984375 C61.2365625 76.65496094 61.7934375 76.91148437 62.3671875 77.17578125 C71.62465766 81.82015395 77.44061194 88.30285794 80.98828125 98.0390625 C85.42373517 113.17473576 83.48304412 130.23589383 76.1171875 144.046875 C70.90885037 152.5670352 64.52477891 157.31090485 55.1796875 160.6484375 C46.83327807 162.43695381 38.5520352 162.56963234 30.05078125 162.6015625 C28.8617067 162.60726257 27.67263214 162.61296265 26.44752502 162.61883545 C23.94557575 162.62823846 21.44361434 162.63480061 18.94165039 162.63867188 C15.12559528 162.64841603 11.31007055 162.67950035 7.49414062 162.7109375 C5.05469067 162.71746505 2.6152369 162.72271649 0.17578125 162.7265625 C-0.95775284 162.7389093 -2.09128693 162.7512561 -3.25917053 162.76397705 C-16.77752085 162.7261139 -16.77752085 162.7261139 -21.8374176 157.97344971 C-27.97791616 150.28587203 -27.61318515 140.50690833 -27.57910156 131.13671875 C-27.5826062 129.9404184 -27.58611084 128.74411804 -27.58972168 127.51156616 C-27.59697681 124.25534455 -27.5953312 120.9992876 -27.58896351 117.7430687 C-27.58386628 114.32000152 -27.58860524 110.8969446 -27.59173584 107.47387695 C-27.5953647 101.72768202 -27.59060483 95.98153865 -27.58105469 90.23535156 C-27.5701722 83.61141864 -27.57369855 76.98760888 -27.5847075 70.36367893 C-27.59381125 64.65553776 -27.59505061 58.94743347 -27.58983016 53.23928738 C-27.58672738 49.83924277 -27.5862542 46.43925588 -27.59290314 43.03921509 C-27.59799986 39.2461116 -27.59021365 35.45324236 -27.57910156 31.66015625 C-27.58315002 30.54716156 -27.58719849 29.43416687 -27.59136963 28.28744507 C-27.54608687 19.91506678 -27.2613255 11.61726778 -21.83810425 4.82315063 C-15.97984318 -0.67585244 -7.45600044 -0.04050458 0 0 Z M5.6796875 31.3984375 C5.6796875 42.2884375 5.6796875 53.1784375 5.6796875 64.3984375 C10.59875 64.429375 10.59875 64.429375 15.6171875 64.4609375 C16.63159912 64.4700415 17.64601074 64.47914551 18.69116211 64.48852539 C31.06472316 64.84449683 31.06472316 64.84449683 41.6796875 59.3984375 C45.69823577 54.04037315 45.32171279 47.80989556 44.6796875 41.3984375 C43.39027549 37.53020148 42.48781701 35.99935432 39.2421875 33.5859375 C34.85098165 31.55098845 31.22131808 31.27795811 26.3828125 31.30078125 C25.29645508 31.30327881 24.21009766 31.30577637 23.09082031 31.30834961 C21.03105957 31.32200562 21.03105957 31.32200562 18.9296875 31.3359375 C14.5571875 31.3565625 10.1846875 31.3771875 5.6796875 31.3984375 Z M5.6796875 93.3984375 C5.6796875 105.6084375 5.6796875 117.8184375 5.6796875 130.3984375 C10.4646875 130.4603125 15.2496875 130.5221875 20.1796875 130.5859375 C21.67306641 130.61324951 23.16644531 130.64056152 24.70507812 130.66870117 C35.73846622 130.97222902 35.73846622 130.97222902 45.22045898 125.98120117 C49.83365445 120.75355807 50.03401799 116.17031898 49.953125 109.48046875 C49.56360457 105.09001703 48.49532663 101.81507562 45.6796875 98.3984375 C40.05236482 93.82457096 34.07034783 93.26879978 27.06640625 93.30078125 C25.94194092 93.30327881 24.81747559 93.30577637 23.65893555 93.30834961 C22.24265869 93.31745361 20.82638184 93.32655762 19.3671875 93.3359375 C12.591875 93.366875 12.591875 93.366875 5.6796875 93.3984375 Z " fill="#000000" transform="translate(894.3203125,404.6015625)"/>
<path d="M0 0 C1.06848679 -0.00637985 2.13697357 -0.0127597 3.23783875 -0.01933289 C4.38371964 -0.02044571 5.52960052 -0.02155853 6.71020508 -0.02270508 C7.90019608 -0.02603348 9.09018707 -0.02936188 10.3162384 -0.03279114 C12.83370579 -0.03785049 15.35117988 -0.04019977 17.86865234 -0.04003906 C21.6981123 -0.04221833 25.52728072 -0.06036505 29.35668945 -0.0793457 C31.80786035 -0.08228136 34.25903261 -0.084265 36.71020508 -0.08520508 C37.84596481 -0.09239059 38.98172455 -0.09957611 40.15190125 -0.10697937 C51.49814866 -0.07478359 62.62038308 1.21994183 71.55004883 8.86401367 C80.04651504 17.838636 82.87114144 28.95790603 83.85473633 40.95776367 C83.46744947 52.05239306 80.59660367 63.09089633 72.59692383 71.09057617 C70.96768697 72.50873781 69.26194578 73.83828449 67.54223633 75.14526367 C68.53223633 75.91870117 68.53223633 75.91870117 69.54223633 76.70776367 C70.53223633 77.51213867 71.52223633 78.31651367 72.54223633 79.14526367 C73.18161133 79.65444336 73.82098633 80.16362305 74.47973633 80.68823242 C83.75934852 88.36851751 88.08420057 97.33891064 89.35473633 109.27026367 C90.20136608 124.35085612 87.05725286 138.26805046 77.54223633 150.14526367 C69.57689191 159.00342691 60.02844937 161.31874483 48.54223633 162.14526367 C44.36083266 162.28838069 40.18289159 162.30902911 35.99926758 162.31323242 C34.83143234 162.31656082 33.66359711 162.31988922 32.46037292 162.32331848 C30.00727733 162.32835299 27.55417497 162.33072789 25.10107422 162.33056641 C21.35543627 162.33276326 17.61008834 162.35098444 13.86450195 162.36987305 C11.47192483 162.37280565 9.07934632 162.37479134 6.68676758 162.37573242 C5.57308304 162.38291794 4.4593985 162.39010345 3.31196594 162.39750671 C-9.70835038 162.35929426 -9.70835038 162.35929426 -14.38354492 158.59448242 C-15.0699707 157.72243164 -15.0699707 157.72243164 -15.77026367 156.83276367 C-16.24077148 156.25913086 -16.7112793 155.68549805 -17.19604492 155.09448242 C-19.86152732 150.97660094 -20.70840022 147.38534701 -20.72518921 142.51066589 C-20.73371918 141.38785721 -20.74224915 140.26504852 -20.7510376 139.10821533 C-20.75013123 137.88576111 -20.74922485 136.66330688 -20.74829102 135.40380859 C-20.75836685 133.46152122 -20.75836685 133.46152122 -20.76864624 131.47999573 C-20.78628498 127.93439421 -20.79100075 124.38888928 -20.79227781 120.84324813 C-20.79370133 118.6254875 -20.79797475 116.40775128 -20.80327225 114.18999672 C-20.82176642 106.44549633 -20.82994375 98.70106471 -20.82836914 90.95654297 C-20.82716833 83.74978426 -20.84826022 76.54332532 -20.87985647 69.33664244 C-20.90605379 63.13942602 -20.91673497 56.94230729 -20.91545832 50.74503595 C-20.91494964 47.04809385 -20.92058014 43.35141818 -20.94181442 39.65453148 C-20.96487127 35.52778183 -20.95565489 31.40169884 -20.94360352 27.27490234 C-20.95484253 26.05852081 -20.96608154 24.84213928 -20.97766113 23.58889771 C-20.92227641 16.120171 -20.28303396 10.34471132 -15.04584312 4.59523296 C-10.39708338 0.36732377 -6.04588773 0.02462664 0 0 Z M11.54223633 31.14526367 C11.54223633 42.03526367 11.54223633 52.92526367 11.54223633 64.14526367 C16.67786133 64.20713867 16.67786133 64.20713867 21.91723633 64.27026367 C22.97475098 64.28847168 24.03226563 64.30667969 25.12182617 64.32543945 C32.4653893 64.367683 39.93800588 64.13909328 46.47973633 60.52026367 C50.56310137 55.81820696 51.86262997 51.22127291 51.47973633 45.02026367 C50.81571172 40.51734682 49.74721509 37.51460032 46.54223633 34.14526367 C39.32006246 30.51265655 32.49651027 30.79524566 24.54223633 30.95776367 C18.10723633 31.05057617 18.10723633 31.05057617 11.54223633 31.14526367 Z M11.54223633 93.14526367 C11.54223633 105.35526367 11.54223633 117.56526367 11.54223633 130.14526367 C16.32723633 130.20713867 21.11223633 130.26901367 26.04223633 130.33276367 C27.53561523 130.36007568 29.02899414 130.3873877 30.56762695 130.41552734 C42.03082688 130.49347811 42.03082688 130.49347811 51.91723633 125.20776367 C55.81026686 120.26660953 56.95189328 115.04675842 56.29614258 108.80151367 C55.39031889 103.99183038 54.19194799 100.59221357 50.54223633 97.14526367 C44.69730977 93.66317976 39.64478405 93.01694154 32.92895508 93.04760742 C31.80448975 93.05010498 30.68002441 93.05260254 29.52148438 93.05517578 C28.10520752 93.06427979 26.68893066 93.07338379 25.22973633 93.08276367 C18.45442383 93.11370117 18.45442383 93.11370117 11.54223633 93.14526367 Z " fill="#000000" transform="translate(554.457763671875,404.854736328125)"/>
<path d="M0 0 C5.32713709 2.6107771 7.35154113 6.2649839 9.35612297 11.76000977 C10.40025284 15.39244359 10.42327917 18.88262623 10.40063477 22.640625 C10.41110336 23.87666725 10.41110336 23.87666725 10.42178345 25.13768005 C10.44165337 27.84189298 10.44125973 30.54572076 10.44140625 33.25 C10.45319816 35.15080777 10.46656677 37.05160634 10.48143005 38.95239258 C10.51753973 43.95045259 10.53778319 48.94843127 10.55297852 53.94659424 C10.57782878 61.91572383 10.61811694 69.8846733 10.67487907 77.8536377 C10.69096465 80.61177993 10.69496435 83.36974678 10.69789124 86.12792969 C10.15104212 107.68354482 10.15104212 107.68354482 18 127 C23.01265765 131.19220023 28.44500571 132.33016749 34.84765625 132.2109375 C40.20983243 131.68542477 43.91983961 130.03215326 47.8125 126.3125 C53.44305119 117.78623676 54.14500072 108.91677254 54.15771484 98.90283203 C54.16279556 98.01893799 54.16787628 97.13504395 54.17311096 96.22436523 C54.18376543 94.31523739 54.19240467 92.40609743 54.19923019 90.49695206 C54.21108791 87.46941 54.2305572 84.44200623 54.25234985 81.41452026 C54.31374176 72.81008534 54.3679848 64.2056672 54.40136719 55.60107422 C54.42236988 50.32793795 54.4577127 45.05505893 54.50212479 39.78207016 C54.51623419 37.77995718 54.52499573 35.77779875 54.52817917 33.77563858 C54.53311558 30.96880592 54.55634204 28.16265079 54.58349609 25.35595703 C54.57898689 24.13058731 54.57898689 24.13058731 54.5743866 22.88046265 C54.68553548 15.10155451 56.34492787 7.65507213 62 2 C66.48016741 -0.71496226 70.90331647 -0.64514981 76 0 C80.89472807 2.35672092 83.31615602 5.32812344 86 10 C86.91200511 12.73601534 87.12906103 14.34744582 87.14044189 17.16337585 C87.14615204 18.01103516 87.15186218 18.85869446 87.15774536 19.73204041 C87.15942215 21.12284569 87.15942215 21.12284569 87.16113281 22.54174805 C87.16858017 24.01078079 87.16858017 24.01078079 87.17617798 25.50949097 C87.19081749 28.76024069 87.19760846 32.01094143 87.203125 35.26171875 C87.20887979 37.52838644 87.21463749 39.79505412 87.22039795 42.0617218 C87.23091631 46.82573676 87.23675193 51.58973482 87.24023438 56.35375977 C87.24568761 62.42018527 87.26964373 68.48638274 87.29820633 74.55273724 C87.31696389 79.24317543 87.32204548 83.93356047 87.32357025 88.62403297 C87.32657335 90.85764612 87.33452135 93.09125886 87.34775543 95.32483482 C87.46726479 117.06668062 86.32194769 137.37147667 70.96875 154.23046875 C60.28051828 164.55080844 48.24702669 166.20627539 34.0625 166.3125 C32.80630859 166.34150391 31.55011719 166.37050781 30.25585938 166.40039062 C16.83250113 166.49048028 4.37772502 163.27315681 -5.92578125 154.328125 C-19.23521938 140.51700073 -22.13738774 120.7030834 -22.16113281 102.31445312 C-22.16609772 101.38003891 -22.17106262 100.44562469 -22.17617798 99.4828949 C-22.19069123 96.41567225 -22.19758159 93.34850123 -22.203125 90.28125 C-22.20595238 89.22841324 -22.20877975 88.17557648 -22.21169281 87.09083557 C-22.22663758 81.52490999 -22.23589818 75.95901005 -22.24023438 70.39306641 C-22.24572792 64.65668819 -22.26978815 58.92054625 -22.29820633 53.18424225 C-22.31685713 48.75920936 -22.3220395 44.3342333 -22.32357025 39.90916443 C-22.32658917 37.79453737 -22.33459189 35.67991112 -22.34775543 33.56532288 C-22.36487526 30.60521524 -22.3629217 27.64568439 -22.35644531 24.68554688 C-22.3656601 23.8198558 -22.37487488 22.95416473 -22.3843689 22.0622406 C-22.33146364 14.31420371 -20.56165002 7.73018487 -15 2 C-10.29636548 -0.88353247 -5.3419975 -0.84625703 0 0 Z " fill="#000000" transform="translate(1020,403)"/>
<path d="M0 0 C11.75106412 8.51952148 15.05372457 22.84100365 18.94921875 36.1484375 C19.45145149 37.83414859 19.95463269 39.51957735 20.45869446 41.20474243 C21.78114725 45.63575478 23.0900938 50.07064578 24.39630127 54.50646973 C25.68715077 58.88060034 26.99185917 63.2505895 28.29492188 67.62109375 C33.24796009 84.25554986 38.13189244 100.91047515 42.9737339 117.57762527 C43.45805235 119.24460167 43.94294404 120.91141164 44.428442 122.57804489 C45.09748046 124.87643102 45.76367596 127.17562096 46.42895508 129.47509766 C46.72344386 130.48480558 46.72344386 130.48480558 47.02388191 131.51491165 C49.66498932 140.67918855 51.21917849 149.10160532 46.5 157.8125 C43.52356717 161.23539775 40.66076596 164.49025076 36.01171875 165.18359375 C31.2512102 165.29552825 28.28058402 165.25246554 24.0625 162.875 C17.67632264 155.24273926 12.5 140.83651294 12.5 130.8125 C-2.35 131.1425 -17.2 131.4725 -32.5 131.8125 C-34.26465132 138.68853059 -34.26465132 138.68853059 -35.9987793 145.57226562 C-37.86674973 152.63005564 -40.24193474 158.56731247 -45.4765625 163.78125 C-49.59037007 165.87786235 -54.0339485 165.50506161 -58.5 164.8125 C-62.78989989 162.7192356 -65.44093713 159.03899748 -67.5 154.8125 C-69.88717025 146.89749769 -68.42199954 138.98579844 -66.2421875 131.21484375 C-65.8521907 129.77430885 -65.8521907 129.77430885 -65.45431519 128.30467224 C-61.27281478 113.07019318 -56.73379725 97.93124683 -52.23291016 82.78881836 C-51.16097371 79.18244467 -50.0926242 75.57504224 -49.02783203 71.96655273 C-38.97661925 37.9046025 -38.97661925 37.9046025 -34.0546875 22.77734375 C-33.61505173 21.3941671 -33.61505173 21.3941671 -33.16653442 19.98304749 C-30.29169064 11.35261266 -26.64862761 4.60575133 -18.74609375 -0.26953125 C-13.07023133 -2.58923154 -5.68952568 -1.93037478 0 0 Z M-10.5 43.8125 C-12.99875734 53.15182032 -15.48991046 62.49313736 -17.97424316 71.83630371 C-18.47144477 73.70516761 -18.96958067 75.57378288 -19.46777344 77.44238281 C-20.31577723 80.62723093 -21.15877374 83.81335606 -22 87 C-22.25475098 87.95398682 -22.50950195 88.90797363 -22.77197266 89.89086914 C-23.00190918 90.76606201 -23.2318457 91.64125488 -23.46875 92.54296875 C-23.66919922 93.29989014 -23.86964844 94.05681152 -24.07617188 94.83666992 C-24.60486768 96.96458313 -24.60486768 96.96458313 -24.5 99.8125 C-14.93 99.8125 -5.36 99.8125 4.5 99.8125 C1.58762037 87.24435707 -1.52497488 74.74114678 -4.75 62.25 C-5.21370192 60.44860895 -5.67724438 58.64717685 -6.140625 56.84570312 C-7.25858764 52.50082883 -8.3786763 48.15650802 -9.5 43.8125 C-9.83 43.8125 -10.16 43.8125 -10.5 43.8125 Z " fill="#000000" transform="translate(728.5,404.1875)"/>
</svg>

